<svg width="10" height="117" viewBox="0 0 10 117" fill="none" xmlns="http://www.w3.org/2000/svg">
<path d="M9 116.82L0.744 114.024L0.743999 111.744L9 108.948L9 110.688L7.176 111.3L7.176 114.528L9 115.116L9 116.82ZM5.796 114.096L5.796 111.744L2.292 112.884L2.292 112.956L5.796 114.096ZM9 101.189L0.743999 101.189L0.743999 98.8494L6.192 96.8094L6.192 96.7374L0.743999 94.7094L0.743999 92.3814L9 92.3814L9 94.0254L3.252 94.0254L3.252 94.0854L9 96.2214L9 97.3974L3.252 99.5334L3.252 99.5934L9 99.5934L9 101.189ZM9 83.7965L0.743998 83.7965L0.743998 78.1565L2.136 78.1565L2.136 82.0925L4.14 82.0925L4.14 78.7205L5.532 78.7205L5.532 82.0925L7.608 82.0925L7.608 78.1565L9 78.1565L9 83.7965ZM9 69.9074L0.743998 69.9074L0.743997 65.9594C0.743997 65.4234 0.803997 64.9954 0.923997 64.6754C1.044 64.3474 1.22 64.0994 1.452 63.9314C1.676 63.7634 1.952 63.6514 2.28 63.5954C2.6 63.5314 2.96 63.4994 3.36 63.4994C3.64 63.4994 3.94 63.5234 4.26 63.5714C4.58 63.6194 4.876 63.7274 5.148 63.8954C5.42 64.0554 5.62 64.3114 5.748 64.6634L9 63.3434L9 65.1434L5.688 66.3914L5.916 65.9714C5.94 66.0274 5.956 66.0954 5.964 66.1754C5.972 66.2474 5.976 66.3314 5.976 66.4274L5.976 68.2034L9 68.2034L9 69.9074ZM4.596 68.2034L4.596 66.6434C4.596 66.3074 4.576 66.0434 4.536 65.8514C4.496 65.6594 4.432 65.5154 4.344 65.4194C4.248 65.3234 4.124 65.2634 3.972 65.2394C3.812 65.2154 3.608 65.2034 3.36 65.2034C3.112 65.2034 2.908 65.2154 2.748 65.2394C2.588 65.2634 2.464 65.3194 2.376 65.4074C2.288 65.4954 2.224 65.6394 2.184 65.8394C2.144 66.0314 2.124 66.2954 2.124 66.6314L2.124 68.2034L4.596 68.2034ZM9 45.9092L7.92 45.9092C7.456 45.9092 7.064 45.8972 6.744 45.8732C6.416 45.8492 6.14 45.7932 5.916 45.7052C5.692 45.6092 5.5 45.4692 5.34 45.2852C5.18 45.0932 5.032 44.8292 4.896 44.4932L4.128 42.5972C4.016 42.3412 3.92 42.1492 3.84 42.0212C3.752 41.8932 3.644 41.8092 3.516 41.7692C3.388 41.7292 3.216 41.7092 3 41.7092C2.712 41.7092 2.5 41.7612 2.364 41.8652C2.22 41.9612 2.132 42.1332 2.1 42.3812C2.06 42.6212 2.04 42.9652 2.04 43.4132C2.04 43.5892 2.048 43.8092 2.064 44.0732C2.08 44.3372 2.1 44.6132 2.124 44.9012C2.148 45.1892 2.176 45.4692 2.208 45.7412L0.899997 45.7412C0.851996 45.4932 0.811996 45.2052 0.779996 44.8772C0.739996 44.5492 0.707996 44.2132 0.683997 43.8692C0.659996 43.5172 0.647996 43.1932 0.647996 42.8972C0.647996 42.4972 0.671996 42.1252 0.719996 41.7812C0.767996 41.4292 0.867996 41.1212 1.02 40.8572C1.172 40.5932 1.396 40.3852 1.692 40.2332C1.988 40.0812 2.388 40.0052 2.892 40.0052C3.388 40.0052 3.788 40.0612 4.092 40.1732C4.396 40.2772 4.64 40.4372 4.824 40.6532C5.008 40.8692 5.164 41.1372 5.292 41.4572L6.156 43.6172C6.228 43.8092 6.308 43.9532 6.396 44.0492C6.476 44.1372 6.584 44.1972 6.72 44.2292C6.848 44.2532 7.024 44.2652 7.248 44.2652L7.596 44.2652L7.596 40.0052L9 40.0052L9 45.9092ZM9 28.1453L7.26 28.1453L7.26 32.2253L6.024 32.2253L0.743996 29.1893L0.743996 27.3413L5.868 30.3893L5.868 28.1213L3.6 27.6653L3.6 26.4533L5.868 26.4533L5.868 25.3493L7.26 25.3493L7.26 26.4533L9 26.4533L9 28.1453ZM9.66 18.4077L0.0839952 14.9277L0.0839951 13.5357L9.66 17.0277L9.66 18.4077ZM9 5.6445L2.14799 2.4885L2.14799 6.5805L0.743995 6.5805L0.743995 0.664496L2.01599 0.664496L9 3.7605L9 5.6445Z" fill="#4D4D4D"/>
</svg>
