<svg xmlns="http://www.w3.org/2000/svg" width="773" height="142" viewBox="0 0 975 142" fill="none"><script xmlns="" id="eppiocemhmnlbhjplcgkofciiegomcon"/><script xmlns=""/><script xmlns=""/>
<path d="M1.19209e-07 140L46.6 2.4H84.6L131.2 140H102.2L92 109.6H38.2L28.4 140H1.19209e-07ZM45.4 86.6H84.6L65.6 28.2H64.4L45.4 86.6ZM150.509 140V2.4H217.709C226.643 2.4 233.909 3.73333 239.509 6.39999C245.243 8.93332 249.443 12.8 252.109 18C254.909 23.0667 256.309 29.4 256.309 37C256.309 43.2667 255.443 48.6 253.709 53C251.976 57.4 249.376 60.9333 245.909 63.6C242.443 66.2667 237.976 68.2 232.509 69.4V70.2C238.643 71.4 243.509 73.4 247.109 76.2C250.843 78.8667 253.509 82.4667 255.109 87C256.709 91.4 257.509 96.9333 257.509 103.6C257.509 109.067 256.843 114.067 255.509 118.6C254.176 123 251.976 126.8 248.909 130C245.976 133.2 241.976 135.667 236.909 137.4C231.843 139.133 225.509 140 217.909 140H150.509ZM178.909 117.2H208.509C213.843 117.2 218.043 116.733 221.109 115.8C224.176 114.733 226.243 112.933 227.309 110.4C228.509 107.733 229.109 104.067 229.109 99.4C229.109 94.8667 228.509 91.3333 227.309 88.8C226.109 86.1333 223.976 84.2667 220.909 83.2C217.976 82.1333 213.843 81.6 208.509 81.6H178.909V117.2ZM178.909 59.2H207.509C212.576 59.2 216.576 58.6667 219.509 57.6C222.576 56.5333 224.709 54.8 225.909 52.4C227.243 49.8667 227.909 46.6 227.909 42.6C227.909 37.9333 227.309 34.4 226.109 32C225.043 29.4667 223.043 27.7333 220.109 26.8C217.309 25.8667 213.109 25.4 207.509 25.4H178.909V59.2ZM339.67 141.6C328.47 141.6 319.204 140.933 311.87 139.6C304.67 138.267 299.004 136.067 294.87 133C290.737 129.8 287.737 125.533 285.87 120.2C284.004 114.733 282.804 108 282.27 100C281.737 92 281.47 82.4 281.47 71.2C281.47 60 281.737 50.4 282.27 42.4C282.804 34.4 284.004 27.7333 285.87 22.4C287.737 16.9333 290.737 12.6667 294.87 9.6C299.004 6.39999 304.67 4.13332 311.87 2.79999C319.204 1.46666 328.47 0.799992 339.67 0.799992C350.87 0.799992 360.07 1.46666 367.27 2.79999C374.604 4.13332 380.337 6.39999 384.47 9.6C388.604 12.6667 391.604 16.9333 393.47 22.4C395.47 27.7333 396.737 34.4 397.27 42.4C397.804 50.4 398.07 60 398.07 71.2C398.07 82.4 397.804 92 397.27 100C396.737 108 395.47 114.733 393.47 120.2C391.604 125.533 388.604 129.8 384.47 133C380.337 136.067 374.604 138.267 367.27 139.6C360.07 140.933 350.87 141.6 339.67 141.6ZM339.67 118.4C345.537 118.4 350.27 118.2 353.87 117.8C357.604 117.4 360.537 116.467 362.67 115C364.804 113.533 366.337 111.133 367.27 107.8C368.337 104.467 369.004 99.8667 369.27 94C369.537 88.1333 369.67 80.5333 369.67 71.2C369.67 61.8667 369.537 54.2667 369.27 48.4C369.004 42.5333 368.337 37.9333 367.27 34.6C366.337 31.2667 364.804 28.8667 362.67 27.4C360.537 25.9333 357.604 25 353.87 24.6C350.27 24.2 345.537 24 339.67 24C333.937 24 329.204 24.2 325.47 24.6C321.87 25 319.004 25.9333 316.87 27.4C314.737 28.8667 313.137 31.2667 312.07 34.6C311.137 37.9333 310.537 42.5333 310.27 48.4C310.004 54.2667 309.87 61.8667 309.87 71.2C309.87 80.5333 310.004 88.1333 310.27 94C310.537 99.8667 311.137 104.467 312.07 107.8C313.137 111.133 314.737 113.533 316.87 115C319.004 116.467 321.87 117.4 325.47 117.8C329.204 118.2 333.937 118.4 339.67 118.4ZM480.277 141.6C470.543 141.6 462.41 141 455.877 139.8C449.343 138.6 444.077 136.667 440.077 134C436.077 131.333 433.01 127.6 430.877 122.8C428.877 118 427.477 112 426.677 104.8C426.01 97.4667 425.677 88.7333 425.677 78.6V2.4H454.077V85.8C454.077 92.8667 454.277 98.6 454.677 103C455.21 107.267 456.21 110.533 457.677 112.8C459.277 115.067 461.877 116.6 465.477 117.4C469.077 118.067 474.01 118.4 480.277 118.4C486.543 118.4 491.41 118.067 494.877 117.4C498.477 116.6 501.077 115.067 502.677 112.8C504.277 110.533 505.277 107.267 505.677 103C506.077 98.6 506.277 92.8667 506.277 85.8V2.4H534.677V78.6C534.677 88.7333 534.277 97.4667 533.477 104.8C532.81 112 531.477 118 529.477 122.8C527.477 127.6 524.477 131.333 520.477 134C516.477 136.667 511.21 138.6 504.677 139.8C498.143 141 490.01 141.6 480.277 141.6ZM594.125 140V26.4H554.325V2.4H662.325V26.4H622.525V140H594.125ZM782.816 141.6C773.082 141.6 764.949 141 758.416 139.8C751.882 138.6 746.616 136.667 742.616 134C738.616 131.333 735.549 127.6 733.416 122.8C731.416 118 730.016 112 729.216 104.8C728.549 97.4667 728.216 88.7333 728.216 78.6V2.4H756.616V85.8C756.616 92.8667 756.816 98.6 757.216 103C757.749 107.267 758.749 110.533 760.216 112.8C761.816 115.067 764.416 116.6 768.016 117.4C771.616 118.067 776.549 118.4 782.816 118.4C789.082 118.4 793.949 118.067 797.416 117.4C801.016 116.6 803.616 115.067 805.216 112.8C806.816 110.533 807.816 107.267 808.216 103C808.616 98.6 808.816 92.8667 808.816 85.8V2.4H837.216V78.6C837.216 88.7333 836.816 97.4667 836.016 104.8C835.349 112 834.016 118 832.016 122.8C830.016 127.6 827.016 131.333 823.016 134C819.016 136.667 813.749 138.6 807.216 139.8C800.682 141 792.549 141.6 782.816 141.6ZM917.464 141.6C912.397 141.6 906.797 141.467 900.664 141.2C894.664 140.933 888.797 140.533 883.064 140C877.331 139.6 872.064 139.133 867.264 138.6V116C872.197 116.4 877.197 116.8 882.264 117.2C887.464 117.6 892.397 117.933 897.064 118.2C901.731 118.333 905.731 118.4 909.064 118.4C915.864 118.4 921.131 118.133 924.864 117.6C928.597 116.933 931.397 116 933.264 114.8C934.731 113.733 935.731 112.6 936.264 111.4C936.797 110.067 937.131 108.533 937.264 106.8C937.397 104.933 937.464 102.867 937.464 100.6C937.464 97.5333 937.264 95 936.864 93C936.597 91 936.064 89.4667 935.264 88.4C934.464 87.2 933.131 86.3333 931.264 85.8C929.531 85.2667 927.264 84.8667 924.464 84.6L893.664 80.8C887.531 80 882.464 78.6 878.464 76.6C874.597 74.6 871.531 71.9333 869.264 68.6C866.997 65.2667 865.397 61.3333 864.464 56.8C863.664 52.2667 863.264 47.1333 863.264 41.4C863.264 32.3333 864.531 25.1333 867.064 19.8C869.597 14.4667 873.131 10.4 877.664 7.59999C882.331 4.79999 887.797 3 894.064 2.2C900.331 1.26666 907.131 0.799992 914.464 0.799992C919.797 0.799992 925.264 0.999993 930.864 1.4C936.464 1.66666 941.731 2.06666 946.664 2.59999C951.597 3.13333 955.731 3.79999 959.064 4.59999V26.6C955.731 26.0667 951.864 25.6 947.464 25.2C943.064 24.8 938.464 24.5333 933.664 24.4C928.864 24.1333 924.331 24 920.064 24C913.797 24 908.797 24.2667 905.064 24.8C901.464 25.2 898.664 25.9333 896.664 27C894.397 28.3333 892.997 30.0667 892.464 32.2C892.064 34.3333 891.864 37 891.864 40.2C891.864 44.2 892.131 47.2667 892.664 49.4C893.197 51.4 894.464 52.8 896.464 53.6C898.464 54.4 901.597 55.0667 905.864 55.6L936.664 59.2C940.397 59.6 943.864 60.2667 947.064 61.2C950.264 62.1333 953.131 63.6 955.664 65.6C958.197 67.6 960.264 70.4 961.864 74C962.797 75.8667 963.531 78.0667 964.064 80.6C964.597 83 964.997 85.7333 965.264 88.8C965.664 91.8667 965.864 95.2667 965.864 99C965.864 106.733 965.064 113.2 963.464 118.4C961.997 123.6 959.864 127.733 957.064 130.8C954.264 133.867 950.797 136.2 946.664 137.8C942.664 139.4 938.197 140.4 933.264 140.8C928.331 141.333 923.064 141.6 917.464 141.6Z" fill="black" fill-opacity="0.04"/>
</svg>