<svg width="837" height="140" viewBox="0 0 837 140" fill="none" xmlns="http://www.w3.org/2000/svg">
<path d="M1.19209e-07 140L46.6 2.4H84.6L131.2 140H102.2L92 109.6H38.2L28.4 140H1.19209e-07ZM45.4 86.6H84.6L65.6 28.2H64.4L45.4 86.6ZM150.509 140V2.4H189.509L223.509 93.2H224.709L258.509 2.4H297.309V140H269.909V44.2H268.909L233.309 140H213.709L178.109 44.2H177.109V140H150.509ZM330.392 140V2.4H424.392V25.6H358.792V59H414.992V82.2H358.792V116.8H424.392V140H330.392ZM451.877 140V2.4H517.677C526.61 2.4 533.743 3.39999 539.077 5.39999C544.543 7.39999 548.677 10.3333 551.477 14.2C554.277 17.9333 556.143 22.5333 557.077 28C558.143 33.3333 558.677 39.3333 558.677 46C558.677 50.6667 558.277 55.6667 557.477 61C556.677 66.3333 554.877 71.2667 552.077 75.8C549.41 80.3333 545.143 83.6667 539.277 85.8L561.277 140H531.277L510.477 84.8L517.477 88.6C516.543 89 515.41 89.2667 514.077 89.4C512.877 89.5333 511.477 89.6 509.877 89.6H480.277V140H451.877ZM480.277 66.6H506.277C511.877 66.6 516.277 66.2667 519.477 65.6C522.677 64.9333 525.077 63.8667 526.677 62.4C528.277 60.8 529.277 58.7333 529.677 56.2C530.077 53.5333 530.277 50.1333 530.277 46C530.277 41.8667 530.077 38.4667 529.677 35.8C529.277 33.1333 528.343 31.0667 526.877 29.6C525.41 28.1333 523.01 27.0667 519.677 26.4C516.477 25.7333 512.077 25.4 506.477 25.4H480.277V66.6ZM631.847 140V122C631.847 114.267 632.047 107.733 632.447 102.4C632.847 96.9333 633.78 92.3333 635.247 88.6C636.847 84.8667 639.18 81.6667 642.247 79C645.447 76.3333 649.847 73.8667 655.447 71.6L687.047 58.8C691.314 56.9333 694.514 55.3333 696.647 54C698.78 52.5333 700.18 50.7333 700.847 48.6C701.514 46.4667 701.847 43.6 701.847 40C701.847 35.2 700.98 31.6667 699.247 29.4C697.647 27 694.78 25.5333 690.647 25C686.647 24.3333 680.914 24 673.447 24C670.514 24 666.847 24.1333 662.447 24.4C658.047 24.6667 653.447 25 648.647 25.4C643.847 25.8 639.18 26.2667 634.647 26.8V5C638.78 4.19999 643.58 3.53332 649.047 2.99999C654.514 2.33332 660.114 1.79999 665.847 1.4C671.714 0.999993 677.114 0.799992 682.047 0.799992C688.714 0.799992 694.914 1.19999 700.647 1.99999C706.514 2.79999 711.647 4.46666 716.047 7C720.447 9.53333 723.914 13.2667 726.447 18.2C728.98 23.1333 730.247 29.8 730.247 38.2C730.247 46.4667 729.314 53.1333 727.447 58.2C725.714 63.2667 723.047 67.3333 719.447 70.4C715.847 73.4667 711.38 76.0667 706.047 78.2L670.047 92.6C666.847 93.8 664.447 95.1333 662.847 96.6C661.38 97.9333 660.38 99.7333 659.847 102C659.447 104.133 659.247 107.067 659.247 110.8V116.6H730.247V140H631.847ZM817.913 140V111H749.913V90.4L800.513 2.4H831.313L780.513 87.8H818.313L825.913 50H846.113V87.8H864.513V111H846.113V140H817.913ZM894.605 140L947.205 25.8H879.005V2.4H977.605V23.6L926.005 140H894.605Z" fill="black" fill-opacity="0.04"/>
</svg>
