<svg xmlns="http://www.w3.org/2000/svg" width="1093" height="142" viewBox="0 0 1393 142" fill="none"><script xmlns="" id="eppiocemhmnlbhjplcgkofciiegomcon"/><script xmlns=""/><script xmlns=""/>
<path d="M1.19209e-07 140L46.6 2.4H84.6L131.2 140H102.2L92 109.6H38.2L28.4 140H1.19209e-07ZM45.4 86.6H84.6L65.6 28.2H64.4L45.4 86.6ZM150.509 140V2.4H214.309C222.843 2.4 229.776 3.46666 235.109 5.59999C240.576 7.73333 244.776 10.8 247.709 14.8C250.643 18.6667 252.643 23.4 253.709 29C254.909 34.6 255.509 40.9333 255.509 48C255.509 54.5333 254.976 60.6 253.909 66.2C252.976 71.6667 251.043 76.4667 248.109 80.6C245.176 84.7333 240.909 87.9333 235.309 90.2C229.843 92.4667 222.576 93.6 213.509 93.6H178.909V140H150.509ZM178.909 70.4H202.309C208.043 70.4 212.576 70.1333 215.909 69.6C219.243 68.9333 221.709 67.8 223.309 66.2C224.909 64.6 225.909 62.3333 226.309 59.4C226.843 56.4667 227.109 52.6667 227.109 48C227.109 43.3333 226.843 39.5333 226.309 36.6C225.909 33.6667 224.909 31.4 223.309 29.8C221.843 28.0667 219.509 26.9333 216.309 26.4C213.109 25.7333 208.709 25.4 203.109 25.4H178.909V70.4ZM280.002 140V2.4H343.802C352.335 2.4 359.268 3.46666 364.602 5.59999C370.068 7.73333 374.268 10.8 377.202 14.8C380.135 18.6667 382.135 23.4 383.202 29C384.402 34.6 385.002 40.9333 385.002 48C385.002 54.5333 384.468 60.6 383.402 66.2C382.468 71.6667 380.535 76.4667 377.602 80.6C374.668 84.7333 370.402 87.9333 364.802 90.2C359.335 92.4667 352.068 93.6 343.002 93.6H308.402V140H280.002ZM308.402 70.4H331.802C337.535 70.4 342.068 70.1333 345.402 69.6C348.735 68.9333 351.202 67.8 352.802 66.2C354.402 64.6 355.402 62.3333 355.802 59.4C356.335 56.4667 356.602 52.6667 356.602 48C356.602 43.3333 356.335 39.5333 355.802 36.6C355.402 33.6667 354.402 31.4 352.802 29.8C351.335 28.0667 349.002 26.9333 345.802 26.4C342.602 25.7333 338.202 25.4 332.602 25.4H308.402V70.4ZM409.494 140V2.4H437.894V116H495.494V140H409.494ZM532.695 140V91.2L485.495 2.4H515.295L546.895 63.6H548.295L579.695 2.4H608.495L561.095 91.2V140H532.695ZM726.584 141.6C715.384 141.6 706.118 140.933 698.784 139.6C691.584 138.267 685.918 136.067 681.784 133C677.651 129.8 674.651 125.533 672.784 120.2C670.918 114.733 669.718 108 669.184 100C668.651 92 668.384 82.4 668.384 71.2C668.384 60 668.651 50.4 669.184 42.4C669.718 34.4 670.918 27.7333 672.784 22.4C674.651 16.9333 677.651 12.6667 681.784 9.6C685.918 6.39999 691.584 4.13332 698.784 2.79999C706.118 1.46666 715.384 0.799992 726.584 0.799992C737.784 0.799992 746.984 1.46666 754.184 2.79999C761.518 4.13332 767.251 6.39999 771.384 9.6C775.518 12.6667 778.518 16.9333 780.384 22.4C782.384 27.7333 783.651 34.4 784.184 42.4C784.718 50.4 784.984 60 784.984 71.2C784.984 82.4 784.718 92 784.184 100C783.651 108 782.384 114.733 780.384 120.2C778.518 125.533 775.518 129.8 771.384 133C767.251 136.067 761.518 138.267 754.184 139.6C746.984 140.933 737.784 141.6 726.584 141.6ZM726.584 118.4C732.451 118.4 737.184 118.2 740.784 117.8C744.518 117.4 747.451 116.467 749.584 115C751.718 113.533 753.251 111.133 754.184 107.8C755.251 104.467 755.918 99.8667 756.184 94C756.451 88.1333 756.584 80.5333 756.584 71.2C756.584 61.8667 756.451 54.2667 756.184 48.4C755.918 42.5333 755.251 37.9333 754.184 34.6C753.251 31.2667 751.718 28.8667 749.584 27.4C747.451 25.9333 744.518 25 740.784 24.6C737.184 24.2 732.451 24 726.584 24C720.851 24 716.118 24.2 712.384 24.6C708.784 25 705.918 25.9333 703.784 27.4C701.651 28.8667 700.051 31.2667 698.984 34.6C698.051 37.9333 697.451 42.5333 697.184 48.4C696.918 54.2667 696.784 61.8667 696.784 71.2C696.784 80.5333 696.918 88.1333 697.184 94C697.451 99.8667 698.051 104.467 698.984 107.8C700.051 111.133 701.651 113.533 703.784 115C705.918 116.467 708.784 117.4 712.384 117.8C716.118 118.2 720.851 118.4 726.584 118.4ZM813.791 140V2.4H843.191L897.391 87.2H898.391V2.4H925.591V140H898.591L841.991 50.6H840.991V140H813.791ZM958.322 140V2.4H986.722V116H1044.32V140H958.322ZM1065.94 140V2.4H1094.34V140H1065.94ZM1127.07 140V2.4H1156.47L1210.67 87.2H1211.67V2.4H1238.87V140H1211.87L1155.27 50.6H1154.27V140H1127.07ZM1271.6 140V2.4H1365.6V25.6H1300V59H1356.2V82.2H1300V116.8H1365.6V140H1271.6Z" fill="black" fill-opacity="0.04"/>
</svg>