<svg width="542" height="659" viewBox="0 0 542 659" fill="none" xmlns="http://www.w3.org/2000/svg">
<path d="M406.5 406.5C481.335 331.665 481.335 210.335 406.5 135.5C331.665 60.6655 210.335 60.6654 135.5 135.5C60.6655 210.335 60.6654 331.665 135.5 406.5C210.335 481.335 331.665 481.335 406.5 406.5Z" fill="#FF512F" fill-opacity="0.3"/>
<path d="M66.6662 526.929C66.7968 526.994 66.949 527.038 67.0796 527.103C68.2325 527.581 69.5812 527.299 70.4514 526.407L143.347 452.88C144.239 451.988 144.5 450.661 144.021 449.487C143.956 449.356 143.913 449.204 143.847 449.073L66.6445 526.907L66.6662 526.929Z" fill="#FF512F"/>
<path d="M59.2539 523.187C60.4503 523.905 61.9731 523.731 62.9738 522.731L139.611 445.441C140.59 444.44 140.764 442.917 140.046 441.721L59.2539 523.187Z" fill="#FF512F"/>
<path d="M52.6545 518.619C53.2636 519.098 53.8727 519.598 54.5036 520.055L136.84 437.022C136.362 436.391 135.883 435.782 135.383 435.173L52.6328 518.619H52.6545Z" fill="#FF512F"/>
<path d="M84.5882 531.279C85.1538 531.323 85.7411 531.366 86.3067 531.388C87.1768 531.432 88.0252 531.084 88.6561 530.475L147.586 471.044C148.195 470.413 148.543 469.565 148.478 468.695C148.434 468.108 148.391 467.542 148.347 466.976L84.5664 531.279H84.5882Z" fill="#FF512F"/>
<path d="M110.391 527.69C112.218 526.994 114.023 526.211 115.764 525.341C116.068 525.189 116.373 524.971 116.612 524.732L142.085 499.041C142.325 498.802 142.542 498.497 142.694 498.193C143.543 496.452 144.326 494.647 145 492.798L110.391 527.69Z" fill="#FF512F"/>
<path d="M75.0234 529.713C75.3497 529.8 75.6761 529.866 76.0024 529.953C77.0465 530.192 78.1559 529.866 78.9173 529.083L146.135 461.299C146.897 460.538 147.223 459.428 146.962 458.384C146.875 458.058 146.81 457.731 146.723 457.405L75.0234 529.692V529.713Z" fill="#FF512F"/>
<path d="M95.8164 531.171C96.7736 531.062 97.7089 530.932 98.6443 530.779C99.2969 530.671 99.906 530.366 100.363 529.888L147.111 482.748C147.568 482.269 147.894 481.682 147.981 481.029C148.112 480.094 148.242 479.159 148.329 478.201L95.8164 531.149V531.171Z" fill="#FF512F"/>
<path d="M41.7422 507.199C42.199 507.829 42.6776 508.46 43.1561 509.069L125.797 425.732C125.188 425.253 124.557 424.775 123.927 424.318L41.7422 507.199Z" fill="#FF512F"/>
<path d="M32.0569 460.885C31.6001 461.342 31.2955 461.93 31.1868 462.56C31.0345 463.518 30.8822 464.496 30.7734 465.475L82.0898 413.724C81.1109 413.854 80.132 413.985 79.1748 414.159C78.544 414.268 77.9566 414.594 77.4998 415.051L32.0569 460.885Z" fill="#FF512F"/>
<path d="M37.8668 443.809C37.6493 444.027 37.4535 444.288 37.3012 444.57C36.3006 446.463 35.3869 448.421 34.582 450.422L67.0599 417.683C65.0586 418.51 63.1225 419.424 61.23 420.446C60.9472 420.598 60.708 420.794 60.4687 421.011L37.845 443.809H37.8668Z" fill="#FF512F"/>
<path d="M31.36 472.806C30.7509 473.415 30.4246 474.264 30.4463 475.112C30.4681 475.721 30.5116 476.309 30.5551 476.918L93.5313 413.398C92.9439 413.354 92.3349 413.332 91.7258 413.311C90.8556 413.289 90.029 413.615 89.4199 414.224L31.3382 472.806H31.36Z" fill="#FF512F"/>
<path d="M35.3617 491.188C34.4915 492.058 34.2087 493.385 34.6655 494.516C34.7308 494.669 34.7961 494.843 34.8613 494.995L111.651 417.553C111.499 417.487 111.325 417.422 111.172 417.357C110.019 416.9 108.714 417.205 107.844 418.075L35.3617 491.166V491.188Z" fill="#FF512F"/>
<path d="M39.0389 498.714C38.06 499.693 37.886 501.216 38.5821 502.413V502.456L119.157 421.229C117.939 420.511 116.372 420.728 115.393 421.729L39.0607 498.714H39.0389Z" fill="#FF512F"/>
<path d="M130.035 429.365L46.8281 513.289C47.372 513.855 47.9158 514.399 48.4596 514.942L131.688 430.996C131.144 430.452 130.579 429.908 130.035 429.365Z" fill="#FF512F"/>
<path d="M32.7084 482.661C31.9688 483.422 31.6207 484.51 31.86 485.532C31.947 485.88 32.0123 486.228 32.0993 486.554L103.211 414.833C102.863 414.746 102.515 414.681 102.167 414.594C101.123 414.377 100.057 414.703 99.2956 415.464L32.6867 482.639L32.7084 482.661Z" fill="#FF512F"/>
<path d="M404.741 477.309C414.196 477.309 421.861 469.644 421.861 460.189C421.861 450.734 414.196 443.069 404.741 443.069C395.286 443.069 387.621 450.734 387.621 460.189C387.621 469.644 395.286 477.309 404.741 477.309Z" fill="#FFE9E9"/>
<path d="M349.289 187.01H102.191V557.231H349.289V187.01Z" fill="#F0C27A"/>
<path d="M362.331 172.327H115.234V542.548H362.331V172.327Z" fill="white"/>
<path d="M229.399 412.898H153.566V419.424H229.399V412.898Z" fill="#151515"/>
<path d="M336.23 448.965H153.566V455.491H336.23V448.965Z" fill="#FF512F" fill-opacity="0.5"/>
<path d="M234.098 466.498H153.566V473.024H234.098V466.498Z" fill="#FF512F" fill-opacity="0.5"/>
<path d="M181.302 425.928H153.566V432.454H181.302V425.928Z" fill="#151515"/>
<path d="M329.094 190.273H148.454C142.939 190.273 138.469 194.743 138.469 200.258V390.687C138.469 396.202 142.939 400.672 148.454 400.672H329.094C334.608 400.672 339.079 396.202 339.079 390.687V200.258C339.079 194.743 334.608 190.273 329.094 190.273Z" fill="white"/>
<mask id="mask0_270_97" style="mask-type:luminance" maskUnits="userSpaceOnUse" x="139" y="189" width="201" height="211">
<path d="M339.833 189.255H139.223V399.654H339.833V189.255Z" fill="white"/>
</mask>
<g mask="url(#mask0_270_97)">
<path d="M331.666 420.446C330.208 407.438 325.292 366.063 320.463 357.47C314.72 347.246 260.662 324.557 260.662 324.557L237.495 339.263L214.241 324.688C214.241 324.688 160.336 347.681 154.636 357.927C149.85 366.541 145.152 407.938 143.781 420.969L331.666 420.446Z" fill="#2A3157"/>
<path d="M225.38 331.67L214.242 324.687L192.445 370.435L210.609 390.078L199.624 406.633L215.373 420.772L231.058 420.729L225.38 331.67Z" fill="#505E83"/>
<path d="M251.306 331.605L262.4 324.557L284.458 370.174L266.403 389.926L277.476 406.415L261.813 420.642L246.129 420.686L251.306 331.605Z" fill="#505E83"/>
<path d="M259.792 278.396C259.792 278.396 254.375 310.287 259.748 332.345C259.748 332.345 253.418 338.066 239.409 347.463L235.58 348.355C221.506 339.045 214.262 332.758 214.262 332.758C217.742 310.591 214.457 278.527 214.457 278.527" fill="#DC6457"/>
<path d="M218.221 222.033C218.221 222.033 263.186 194.537 280.893 209.503C298.6 224.47 275.259 247.485 275.259 247.485C275.259 247.485 282.329 249.225 282.786 254.968C283.242 260.711 271.8 270.456 271.8 270.456L200.71 270.652C200.71 270.652 188.724 249.486 190.029 239.327C191.334 229.168 200.188 239.74 200.188 239.74C200.188 239.74 209.846 216.747 214.262 216.747C218.678 216.747 218.243 222.033 218.243 222.033H218.221Z" fill="#5D1111"/>
<path d="M269.189 272.305C269.189 272.305 272.843 267.628 277.52 270.609C282.197 273.589 276.585 292.275 269.254 289.621C261.923 286.967 269.21 272.305 269.21 272.305H269.189Z" fill="#EA5764"/>
<path d="M204.499 272.479C204.499 272.479 200.823 267.824 196.168 270.826C191.512 273.828 197.234 292.471 204.543 289.795C211.874 287.119 204.499 272.479 204.499 272.479Z" fill="#EA5764"/>
<path d="M237.345 220.576C237.345 220.576 261.078 222.925 268.039 239.871C275 256.795 273.129 289.904 266.233 299.606C259.337 309.308 250.136 316.878 237.301 317.727H237.323C224.467 316.965 215.221 309.439 208.282 299.78C201.343 290.122 199.276 257.013 206.128 240.045C213.003 223.077 236.714 220.576 236.714 220.576H237.345Z" fill="#F98879"/>
<path d="M235.188 288.381C235.188 288.381 238.69 289.86 242.845 288.185C242.845 288.185 242.018 290.36 240.191 291.187C238.364 292.035 235.362 290.709 235.188 288.359V288.381Z" fill="#EA5764"/>
<path d="M275.264 247.485C275.264 247.485 251.031 264.322 233.345 260.406C215.681 256.491 228.864 239.675 228.864 239.675L207.719 256.077C207.719 256.077 212.157 267.106 201.585 275.525C201.585 275.525 198.888 260.95 200.628 250.356C202.368 239.762 208.524 230.017 212.919 226.471C217.335 222.925 233.628 214.05 244.243 215.355C254.837 216.66 276.504 221.881 275.242 247.507L275.264 247.485Z" fill="#5D1111"/>
<path d="M237.491 339.263L214.236 324.688C214.236 324.688 213.431 325.036 212.039 325.645L223.742 420.751L250.934 420.686L262.159 325.21C261.202 324.797 260.68 324.579 260.68 324.579L237.512 339.284L237.491 339.263Z" fill="#F9FBFC"/>
<path d="M235.302 349.051L229.82 361.277L238.5 365.584L245.57 359.645L240.023 348.638L235.302 349.051Z" fill="#FF512F"/>
<path d="M229.203 420.729L249.325 420.686L241.82 358.079L235.338 361.647L229.203 420.729Z" fill="#FF512F"/>
</g>
<path d="M164.549 491.971L167.182 500.107C167.312 500.52 167.704 500.803 168.139 500.803H176.688C177.667 500.803 178.058 502.043 177.275 502.63L170.358 507.655C170.01 507.917 169.857 508.373 169.988 508.787L172.62 516.922C172.924 517.858 171.859 518.619 171.075 518.054L164.158 513.029C163.81 512.768 163.331 512.768 162.983 513.029L156.066 518.054C155.282 518.619 154.217 517.858 154.521 516.922L157.153 508.787C157.284 508.373 157.153 507.917 156.783 507.655L149.866 502.63C149.083 502.065 149.474 500.803 150.453 500.803H159.002C159.437 500.803 159.829 500.52 159.959 500.107L162.592 491.971C162.896 491.036 164.201 491.036 164.506 491.971H164.549Z" fill="#FDB913"/>
<path d="M203.772 491.971L206.404 500.107C206.535 500.52 206.926 500.803 207.361 500.803H215.91C216.889 500.803 217.281 502.043 216.498 502.63L209.58 507.655C209.232 507.917 209.08 508.373 209.21 508.787L211.843 516.922C212.147 517.858 211.081 518.619 210.298 518.054L203.38 513.029C203.032 512.768 202.554 512.768 202.206 513.029L195.288 518.054C194.505 518.619 193.439 517.858 193.744 516.922L196.376 508.787C196.506 508.373 196.376 507.917 196.006 507.655L189.088 502.63C188.305 502.065 188.697 500.803 189.676 500.803H198.225C198.66 500.803 199.052 500.52 199.182 500.107L201.814 491.971C202.119 491.036 203.424 491.036 203.729 491.971H203.772Z" fill="#FDB913"/>
<path d="M242.987 491.971L245.619 500.107C245.75 500.52 246.141 500.803 246.576 500.803H255.125C256.104 500.803 256.496 502.043 255.713 502.63L248.795 507.655C248.447 507.917 248.295 508.373 248.425 508.787L251.057 516.922C251.362 517.858 250.296 518.619 249.513 518.054L242.595 513.029C242.247 512.768 241.769 512.768 241.421 513.029L234.503 518.054C233.72 518.619 232.654 517.858 232.959 516.922L235.591 508.787C235.721 508.373 235.591 507.917 235.221 507.655L228.303 502.63C227.52 502.065 227.912 500.803 228.891 500.803H237.44C237.875 500.803 238.266 500.52 238.397 500.107L241.029 491.971C241.334 491.036 242.639 491.036 242.943 491.971H242.987Z" fill="#FDB913"/>
<path d="M282.213 491.971L284.846 500.107C284.976 500.52 285.368 500.803 285.803 500.803H294.352C295.331 500.803 295.722 502.043 294.939 502.63L288.022 507.655C287.674 507.917 287.521 508.373 287.652 508.787L290.284 516.922C290.589 517.858 289.523 518.619 288.739 518.054L281.822 513.029C281.474 512.768 280.995 512.768 280.647 513.029L273.73 518.054C272.946 518.619 271.881 517.858 272.185 516.922L274.817 508.787C274.948 508.373 274.817 507.917 274.448 507.655L267.53 502.63C266.747 502.065 267.138 500.803 268.117 500.803H276.666C277.101 500.803 277.493 500.52 277.623 500.107L280.256 491.971C280.56 491.036 281.865 491.036 282.17 491.971H282.213Z" fill="#FDB913"/>
<path d="M321.436 491.971L324.068 500.107C324.199 500.52 324.59 500.803 325.025 500.803H333.575C334.553 500.803 334.945 502.043 334.162 502.63L327.244 507.655C326.896 507.917 326.744 508.373 326.874 508.787L329.507 516.922C329.811 517.858 328.745 518.619 327.962 518.054L321.045 513.029C320.696 512.768 320.218 512.768 319.87 513.029L312.952 518.054C312.169 518.619 311.103 517.858 311.408 516.922L314.04 508.787C314.17 508.373 314.04 507.917 313.67 507.655L306.753 502.63C305.969 502.065 306.361 500.803 307.34 500.803H315.889C316.324 500.803 316.716 500.52 316.846 500.107L319.478 491.971C319.783 491.036 321.088 491.036 321.393 491.971H321.436Z" fill="#FDB913"/>
<path d="M70.6966 191.382H57.6445V204.434H70.6966V191.382Z" fill="#1A1B18"/>
<path d="M90.7726 219.618H84.0508V226.339H90.7726V219.618Z" fill="#1A1B18"/>
<path d="M53.1641 209.741H48.2695V214.636H53.1641V209.741Z" fill="#1A1B18"/>
<path d="M522.162 269.368H357.031V372.109H522.162V269.368Z" fill="white"/>
<path d="M417.984 281.593H508.696V323.186" stroke="#2A3157" strokeWidth="2.43638" stroke-miterlimit="10"/>
<path d="M343.562 309.329V281.593H370.276" stroke="#2A3157" strokeWidth="4.89452" stroke-miterlimit="10"/>
<path d="M380.065 384.356H343.562V324.817" stroke="#2A3157" strokeWidth="2.43638" stroke-miterlimit="10"/>
<path d="M508.688 354.38V384.356H422.262" stroke="#2A3157" strokeWidth="4.89452" stroke-miterlimit="10"/>
<circle cx="466.71" cy="269.368" r="1.21819" fill="#2A3157"/>
<path d="M478.613 269.368H520.293" stroke="#2A3157" strokeWidth="2.43638" strokeLinecap="round" strokeLinejoin="round"/>
<circle cx="526.23" cy="269.368" r="1.21819" fill="#2A3157"/>
<path d="M526.234 282.42V315.028" stroke="#2A3157" strokeWidth="2.43638" strokeLinecap="round" strokeLinejoin="round"/>
<circle cx="526.23" cy="321.554" r="1.21819" fill="#2A3157"/>
<path d="M424.699 315.855C430.778 315.855 435.706 310.927 435.706 304.848C435.706 298.769 430.778 293.84 424.699 293.84C418.62 293.84 413.691 298.769 413.691 304.848C413.691 310.927 418.62 315.855 424.699 315.855Z" fill="#FDB913"/>
<path d="M486.263 324.012H372.102V328.08H486.263V324.012Z" fill="#FF512F"/>
<path d="M454.878 337.042H403.496V341.11H454.878V337.042Z" fill="#94A3C0"/>
<path d="M463.295 350.095H395.098V354.162H463.295V350.095Z" fill="#94A3C0"/>
<path d="M397.748 551.569L410.113 540.302L395.095 523.82L382.73 535.087L397.748 551.569Z" fill="#A6D0F4"/>
<path opacity="0.53" d="M400.746 489.878C402.126 460.5 379.43 435.565 350.052 434.185C320.674 432.805 295.739 455.502 294.359 484.88C292.978 514.258 315.675 539.192 345.053 540.572C374.431 541.953 399.366 519.256 400.746 489.878Z" fill="white"/>
<circle cx="405.901" cy="434.063" r="0.924521" fill="#4361C4"/>
<path d="M401.97 430.039C372.864 402.303 327.247 400.824 296.379 427.037" stroke="#4361C4" strokeWidth="1.84904" strokeLinecap="round" strokeLinejoin="round"/>
<circle cx="294.245" cy="428.886" r="0.924521" fill="#4361C4"/>
<path d="M298.968 531.519C323.375 558.319 364.902 560.233 391.681 535.826C418.481 511.419 420.395 469.891 395.988 443.113C371.581 416.313 330.053 414.398 303.275 438.806C276.475 463.213 274.56 504.74 298.968 531.519ZM308.126 523.187C288.309 501.455 289.875 467.781 311.606 447.964C333.338 428.146 367.012 429.713 386.83 451.444C406.647 473.176 405.081 506.85 383.349 526.668C361.618 546.485 327.943 544.919 308.126 523.187Z" fill="#2A3157"/>
<path d="M475.3 652.008L501.039 628.546L411.252 530.044L385.513 553.506L475.3 652.008Z" fill="#2A3157"/>
<path d="M480.937 658.2L506.676 634.739L501.049 628.565L475.31 652.027L480.937 658.2Z" fill="#FF512F"/>
<path d="M415.332 184.551C415.332 170.585 426.644 159.274 440.609 159.274C454.575 159.274 465.887 170.585 465.887 184.551C465.887 184.834 465.865 185.095 465.843 185.356H504.999C504.999 185.073 504.999 184.812 504.999 184.551C504.999 148.963 476.154 120.139 440.588 120.139C405.021 120.139 376.176 148.984 376.176 184.551C376.176 184.834 376.176 185.095 376.176 185.356H415.332C415.332 185.073 415.288 184.812 415.288 184.551H415.332Z" fill="#FF512F"/>
<path d="M482.874 233.148L453.354 206.348C449.613 208.545 445.262 209.828 440.607 209.828C439.215 209.828 437.866 209.698 436.539 209.48V248.832C437.888 248.919 439.236 248.985 440.607 248.985C456.791 248.985 471.562 243.002 482.874 233.148Z" fill="#FDB913"/>
<path d="M415.371 185.378H376.215C376.628 219.204 403.124 246.744 436.537 248.832V209.48C424.79 207.566 415.763 197.581 415.371 185.378Z" fill="#151515"/>
<path d="M367.207 184.965C367.207 144.438 400.055 111.569 440.603 111.569" stroke="#2A3157" strokeWidth="1.82729" strokeLinecap="round" strokeLinejoin="round"/>
<path d="M540.917 414.92H443.07V422.251H540.917V414.92Z" fill="#232839"/>
<path d="M510.658 451.618H443.07V458.949H510.658V451.618Z" fill="#FF512F"/>
<path d="M477.941 433.28H443.07V440.611H477.941V433.28Z" fill="#FF512F"/>
<path d="M492.902 433.28H482.504V440.611H492.902V433.28Z" fill="#FF512F"/>
</svg>
