<svg width="860" height="142" viewBox="0 0 860 142" fill="none" xmlns="http://www.w3.org/2000/svg">
<path d="M57.8 141.6C47.6667 141.6 39.2 140.933 32.4 139.6C25.6 138.267 20.0667 136 15.8 132.8C11.5333 129.6 8.26667 125.333 6 120C3.86667 114.667 2.4 108 1.6 100C0.800001 92 0.400001 82.4 0.400001 71.2C0.400001 60 0.800001 50.4 1.6 42.4C2.4 34.4 3.86667 27.7333 6 22.4C8.26667 17.0667 11.5333 12.8 15.8 9.6C20.0667 6.39999 25.6 4.13332 32.4 2.79999C39.2 1.46666 47.6667 0.799992 57.8 0.799992C61.6667 0.799992 65.6667 0.933328 69.8 1.2C74.0667 1.46666 78.1333 1.86666 82 2.4C85.8667 2.93333 89.1333 3.53333 91.8 4.2V26C88.2 25.6 84.7333 25.2667 81.4 25C78.0667 24.6 74.9333 24.3333 72 24.2C69.2 24.0667 66.8 24 64.8 24C58 24 52.4 24.2667 48 24.8C43.6 25.3333 40.0667 26.4667 37.4 28.2C34.8667 29.8 33 32.3333 31.8 35.8C30.6 39.1333 29.8 43.6667 29.4 49.4C29 55.1333 28.8 62.4 28.8 71.2C28.8 79.8667 29 87.1333 29.4 93C29.8 98.7333 30.6 103.333 31.8 106.8C33 110.133 34.8667 112.667 37.4 114.4C40.0667 116 43.6 117.067 48 117.6C52.4 118.133 58 118.4 64.8 118.4C69.2 118.4 74 118.2 79.2 117.8C84.4 117.4 88.8667 116.933 92.6 116.4V138.6C89.6667 139.133 86.2 139.6 82.2 140C78.2 140.533 74.0667 140.933 69.8 141.2C65.6667 141.467 61.6667 141.6 57.8 141.6ZM172.858 141.6C161.658 141.6 152.391 140.933 145.058 139.6C137.858 138.267 132.191 136.067 128.058 133C123.924 129.8 120.924 125.533 119.058 120.2C117.191 114.733 115.991 108 115.458 100C114.924 92 114.658 82.4 114.658 71.2C114.658 60 114.924 50.4 115.458 42.4C115.991 34.4 117.191 27.7333 119.058 22.4C120.924 16.9333 123.924 12.6667 128.058 9.6C132.191 6.39999 137.858 4.13332 145.058 2.79999C152.391 1.46666 161.658 0.799992 172.858 0.799992C184.058 0.799992 193.258 1.46666 200.458 2.79999C207.791 4.13332 213.524 6.39999 217.658 9.6C221.791 12.6667 224.791 16.9333 226.658 22.4C228.658 27.7333 229.924 34.4 230.458 42.4C230.991 50.4 231.258 60 231.258 71.2C231.258 82.4 230.991 92 230.458 100C229.924 108 228.658 114.733 226.658 120.2C224.791 125.533 221.791 129.8 217.658 133C213.524 136.067 207.791 138.267 200.458 139.6C193.258 140.933 184.058 141.6 172.858 141.6ZM172.858 118.4C178.724 118.4 183.458 118.2 187.058 117.8C190.791 117.4 193.724 116.467 195.858 115C197.991 113.533 199.524 111.133 200.458 107.8C201.524 104.467 202.191 99.8667 202.458 94C202.724 88.1333 202.858 80.5333 202.858 71.2C202.858 61.8667 202.724 54.2667 202.458 48.4C202.191 42.5333 201.524 37.9333 200.458 34.6C199.524 31.2667 197.991 28.8667 195.858 27.4C193.724 25.9333 190.791 25 187.058 24.6C183.458 24.2 178.724 24 172.858 24C167.124 24 162.391 24.2 158.658 24.6C155.058 25 152.191 25.9333 150.058 27.4C147.924 28.8667 146.324 31.2667 145.258 34.6C144.324 37.9333 143.724 42.5333 143.458 48.4C143.191 54.2667 143.058 61.8667 143.058 71.2C143.058 80.5333 143.191 88.1333 143.458 94C143.724 99.8667 144.324 104.467 145.258 107.8C146.324 111.133 147.924 113.533 150.058 115C152.191 116.467 155.058 117.4 158.658 117.8C162.391 118.2 167.124 118.4 172.858 118.4ZM260.064 140V2.4H289.464L343.664 87.2H344.664V2.4H371.864V140H344.864L288.264 50.6H287.264V140H260.064ZM432.195 140V26.4H392.395V2.4H500.395V26.4H460.595V140H432.195ZM498.617 140L545.217 2.4H583.217L629.817 140H600.817L590.617 109.6H536.817L527.017 140H498.617ZM544.017 86.6H583.217L564.217 28.2H563.017L544.017 86.6ZM702.527 141.6C692.393 141.6 683.927 140.933 677.127 139.6C670.327 138.267 664.793 136 660.527 132.8C656.26 129.6 652.993 125.333 650.727 120C648.593 114.667 647.127 108 646.327 100C645.527 92 645.127 82.4 645.127 71.2C645.127 60 645.527 50.4 646.327 42.4C647.127 34.4 648.593 27.7333 650.727 22.4C652.993 17.0667 656.26 12.8 660.527 9.6C664.793 6.39999 670.327 4.13332 677.127 2.79999C683.927 1.46666 692.393 0.799992 702.527 0.799992C706.393 0.799992 710.393 0.933328 714.527 1.2C718.793 1.46666 722.86 1.86666 726.727 2.4C730.593 2.93333 733.86 3.53333 736.527 4.2V26C732.927 25.6 729.46 25.2667 726.127 25C722.793 24.6 719.66 24.3333 716.727 24.2C713.927 24.0667 711.527 24 709.527 24C702.727 24 697.127 24.2667 692.727 24.8C688.327 25.3333 684.793 26.4667 682.127 28.2C679.593 29.8 677.727 32.3333 676.527 35.8C675.327 39.1333 674.527 43.6667 674.127 49.4C673.727 55.1333 673.527 62.4 673.527 71.2C673.527 79.8667 673.727 87.1333 674.127 93C674.527 98.7333 675.327 103.333 676.527 106.8C677.727 110.133 679.593 112.667 682.127 114.4C684.793 116 688.327 117.067 692.727 117.6C697.127 118.133 702.727 118.4 709.527 118.4C713.927 118.4 718.727 118.2 723.927 117.8C729.127 117.4 733.593 116.933 737.327 116.4V138.6C734.393 139.133 730.927 139.6 726.927 140C722.927 140.533 718.793 140.933 714.527 141.2C710.393 141.467 706.393 141.6 702.527 141.6ZM790.984 140V26.4H751.184V2.4H859.184V26.4H819.384V140H790.984Z" fill="white" fill-opacity="0.05"/>
</svg>
