<svg width="894" height="142" viewBox="0 0 894 142" fill="none" xmlns="http://www.w3.org/2000/svg">
<path d="M-416.6 140V2.4H-388.2V140H-416.6ZM-355.467 140V2.4H-316.467L-282.467 93.2H-281.267L-247.467 2.4H-208.667V140H-236.067V44.2H-237.067L-272.667 140H-292.267L-327.867 44.2H-328.867V140H-355.467ZM-175.584 140V2.4H-136.584L-102.584 93.2H-101.384L-67.5844 2.4H-28.7844V140H-56.1844V44.2H-57.1844L-92.7844 140H-112.384L-147.984 44.2H-148.984V140H-175.584ZM4.29844 140V2.4H32.6984V140H4.29844ZM121.831 141.6C111.831 141.6 103.298 140.933 96.2313 139.6C89.2979 138.267 83.4979 136.067 78.8313 133C74.2979 129.8 70.7646 125.533 68.2313 120.2C65.6979 114.867 63.8979 108.2 62.8313 100.2C61.8979 92.0667 61.4313 82.4 61.4313 71.2C61.4313 60 61.8979 50.4 62.8313 42.4C63.8979 34.2667 65.6979 27.5333 68.2313 22.2C70.8979 16.8667 74.4979 12.6667 79.0313 9.6C83.6979 6.39999 89.4979 4.13332 96.4313 2.79999C103.365 1.46666 111.831 0.799992 121.831 0.799992C126.231 0.799992 131.098 0.999993 136.431 1.4C141.898 1.79999 147.298 2.33332 152.631 2.99999C157.965 3.53332 162.898 4.26666 167.431 5.2V27C162.765 26.3333 158.231 25.8 153.831 25.4C149.431 25 145.431 24.6667 141.831 24.4C138.231 24.1333 135.231 24 132.831 24C125.231 24 118.898 24.2 113.831 24.6C108.765 24.8667 104.631 25.7333 101.431 27.2C98.2313 28.6667 95.7646 31.0667 94.0313 34.4C92.4313 37.7333 91.2979 42.4 90.6313 48.4C89.9646 54.2667 89.6313 61.8667 89.6313 71.2C89.6313 79.4667 89.8313 86.4 90.2313 92C90.7646 97.6 91.6313 102.2 92.8313 105.8C94.1646 109.4 96.0313 112.2 98.4313 114.2C100.965 116.067 104.165 117.333 108.031 118C112.031 118.667 116.965 119 122.831 119C124.965 119 127.165 119 129.431 119C131.831 118.867 134.031 118.733 136.031 118.6C138.165 118.467 139.898 118.333 141.231 118.2V84.2H118.231V61.8H168.031V137.2C163.498 138.133 158.431 138.933 152.831 139.6C147.231 140.133 141.765 140.6 136.431 141C131.098 141.4 126.231 141.6 121.831 141.6ZM199.22 140V2.4H265.02C273.954 2.4 281.087 3.39999 286.42 5.39999C291.887 7.39999 296.02 10.3333 298.82 14.2C301.62 17.9333 303.487 22.5333 304.42 28C305.487 33.3333 306.02 39.3333 306.02 46C306.02 50.6667 305.62 55.6667 304.82 61C304.02 66.3333 302.22 71.2667 299.42 75.8C296.754 80.3333 292.487 83.6667 286.62 85.8L308.62 140H278.62L257.82 84.8L264.82 88.6C263.887 89 262.754 89.2667 261.42 89.4C260.22 89.5333 258.82 89.6 257.22 89.6H227.62V140H199.22ZM227.62 66.6H253.62C259.22 66.6 263.62 66.2667 266.82 65.6C270.02 64.9333 272.42 63.8667 274.02 62.4C275.62 60.8 276.62 58.7333 277.02 56.2C277.42 53.5333 277.62 50.1333 277.62 46C277.62 41.8667 277.42 38.4667 277.02 35.8C276.62 33.1333 275.687 31.0667 274.22 29.6C272.754 28.1333 270.354 27.0667 267.02 26.4C263.82 25.7333 259.42 25.4 253.82 25.4H227.62V66.6ZM320.977 140L367.577 2.4H405.577L452.177 140H423.177L412.977 109.6H359.177L349.377 140H320.977ZM366.377 86.6H405.577L386.577 28.2H385.377L366.377 86.6ZM490.102 140V26.4H450.302V2.4H558.302V26.4H518.502V140H490.102ZM578.908 140V2.4H607.308V140H578.908ZM694.241 141.6C683.041 141.6 673.774 140.933 666.441 139.6C659.241 138.267 653.574 136.067 649.441 133C645.307 129.8 642.307 125.533 640.441 120.2C638.574 114.733 637.374 108 636.841 100C636.307 92 636.041 82.4 636.041 71.2C636.041 60 636.307 50.4 636.841 42.4C637.374 34.4 638.574 27.7333 640.441 22.4C642.307 16.9333 645.307 12.6667 649.441 9.6C653.574 6.39999 659.241 4.13332 666.441 2.79999C673.774 1.46666 683.041 0.799992 694.241 0.799992C705.441 0.799992 714.641 1.46666 721.841 2.79999C729.174 4.13332 734.907 6.39999 739.041 9.6C743.174 12.6667 746.174 16.9333 748.041 22.4C750.041 27.7333 751.307 34.4 751.841 42.4C752.374 50.4 752.641 60 752.641 71.2C752.641 82.4 752.374 92 751.841 100C751.307 108 750.041 114.733 748.041 120.2C746.174 125.533 743.174 129.8 739.041 133C734.907 136.067 729.174 138.267 721.841 139.6C714.641 140.933 705.441 141.6 694.241 141.6ZM694.241 118.4C700.107 118.4 704.841 118.2 708.441 117.8C712.174 117.4 715.107 116.467 717.241 115C719.374 113.533 720.907 111.133 721.841 107.8C722.907 104.467 723.574 99.8667 723.841 94C724.107 88.1333 724.241 80.5333 724.241 71.2C724.241 61.8667 724.107 54.2667 723.841 48.4C723.574 42.5333 722.907 37.9333 721.841 34.6C720.907 31.2667 719.374 28.8667 717.241 27.4C715.107 25.9333 712.174 25 708.441 24.6C704.841 24.2 700.107 24 694.241 24C688.507 24 683.774 24.2 680.041 24.6C676.441 25 673.574 25.9333 671.441 27.4C669.307 28.8667 667.707 31.2667 666.641 34.6C665.707 37.9333 665.107 42.5333 664.841 48.4C664.574 54.2667 664.441 61.8667 664.441 71.2C664.441 80.5333 664.574 88.1333 664.841 94C665.107 99.8667 665.707 104.467 666.641 107.8C667.707 111.133 669.307 113.533 671.441 115C673.574 116.467 676.441 117.4 680.041 117.8C683.774 118.2 688.507 118.4 694.241 118.4ZM781.447 140V2.4H810.847L865.047 87.2H866.047V2.4H893.247V140H866.247L809.647 50.6H808.647V140H781.447Z" fill="black" fill-opacity="0.04"/>
</svg>
