<svg width="72" height="44" viewBox="0 0 72 44" fill="none" xmlns="http://www.w3.org/2000/svg">
<mask id="mask0_28_515" style="mask-type:luminance" maskUnits="userSpaceOnUse" x="0" y="0" width="72" height="44">
<path d="M71.7843 0.587036H0.936218V43.0139H71.7843V0.587036Z" fill="white"/>
</mask>
<g mask="url(#mask0_28_515)">
<path d="M65.4487 5.6834L65.8253 6.8418C65.8253 6.8418 65.6441 7.52349 63.58 6.98958C61.8829 6.55101 61.8257 6.88947 61.1488 7.2041L60.4766 6.26022C60.4766 6.26022 61.1869 5.16856 62.7362 5.48795C64.295 5.81211 64.8575 5.95513 65.4487 5.67864" fill="#1A1B18"/>
<path d="M64.152 7.97141V19.9415L61.9925 20.4182V8.61496L64.152 7.97141Z" fill="#1A1B18"/>
<path d="M60.6578 29.2139V30.2388C60.6578 30.2388 61.7495 28.6514 63.6992 29.2139L63.3369 31.5545C63.3369 31.5545 61.7495 30.6202 60.6817 32.3601V36.9794H58.4412V29.376C58.4412 29.376 59.8141 29.1567 60.6578 29.2139Z" fill="#1A1B18"/>
<path d="M36.5507 36.9553V29.4043L38.7912 29.1802V29.8714C38.7912 29.8714 41.3321 28.1172 42.9624 29.8714C42.9624 29.8714 43.0578 30.0192 43.2246 29.8905C43.2246 29.8905 47.0764 27.5546 48.0298 30.8058V36.9553H45.8226L45.7654 31.7401C45.7654 31.7401 45.9704 29.9858 43.4487 31.2729L43.4296 36.9553H41.1652V31.702C41.1652 31.702 41.0365 29.8476 38.7912 31.4207V36.9553H36.5507Z" fill="#1A1B18"/>
<path d="M59.2277 15.5987C58.6127 14.4355 57.1492 13.6442 55.8764 14.2115C54.7895 14.6977 53.5406 16.6284 53.3403 17.1575C53.04 17.9489 52.5681 18.0966 52.5681 18.0966C52.5681 18.0966 30.2344 18.1634 29.7053 18.049C29.1809 17.9393 29.1618 17.5723 29.0426 17.4674C28.9235 17.3625 27.9128 14.5404 27.8366 14.4022C27.7603 14.2592 27.5553 14.3736 27.5553 14.3736C27.5553 14.3736 26.2253 15.9038 26.1252 16.0182C25.9822 16.1803 26.0537 16.2947 26.0537 16.2947C26.1729 16.5569 27.255 18.8784 27.3027 18.9595C27.3599 19.0501 27.3027 19.1406 27.3027 19.1406C25.9011 21.3668 22.3592 21.8054 22.2114 21.772C22.1638 21.7625 22.2114 21.8865 22.2114 21.8865L23.5033 23.5692C28.094 22.6015 28.6803 20.2228 28.7042 20.1179C28.7232 20.0464 28.8281 19.9558 28.9282 20.0511C29.0998 20.2132 29.8816 20.2752 29.8816 20.2752C29.8816 20.2752 50.8138 20.2228 51.9293 20.2752C52.6205 20.3086 53.8361 19.9081 53.9744 19.6888C54.084 19.5125 54.37 19.1788 54.5988 19.3647C55.1041 19.7746 55.5666 19.8986 55.7048 20.0082C55.8478 20.1226 58.4554 21.3001 59.3897 19.7699C60.3288 18.2444 59.8378 16.7571 59.2229 15.5939M58.0931 18.2492C58.0264 18.4494 57.1492 18.4446 56.8251 18.3588C56.4389 18.254 56.2196 18.2063 55.7 17.8583C55.495 17.72 55.5761 17.4197 55.5761 17.4197C55.5761 17.4197 55.8621 16.8715 56.2053 16.5283C57.011 15.7226 57.3828 16.4568 57.4829 16.6236C57.8118 17.1528 58.2456 17.8059 58.0931 18.2492Z" fill="#1A1B18"/>
<path d="M54.2173 29.1944C50.8327 28.5032 49.7125 31.249 49.6362 32.131C49.5599 33.0081 49.2691 35.5966 51.5144 36.7359C53.9123 37.9563 56.5723 36.4451 56.5913 36.2592L55.8429 34.9673C55.8429 34.9673 52.1675 36.7073 51.8815 33.604H56.7582C56.7582 33.604 57.602 29.8809 54.2173 29.1897M54.532 32.15H51.953C51.953 31.8258 52.1341 30.677 53.283 30.677C54.6559 30.677 54.5272 32.15 54.5272 32.15" fill="#1A1B18"/>
<path d="M6.67079 21.815C6.67079 21.815 3.18607 26.1769 6.06061 29.3994C8.93991 32.622 14.6604 36.5929 11.7811 40.1873C11.7811 40.1873 16.3002 35.3916 12.377 31.7258C8.45844 28.0599 5.45995 25.2283 6.66602 21.815" fill="#0C8D46"/>
<path d="M13.0349 25.2428C13.0349 25.2428 7.21429 20.4424 6.39436 23.2979C6.39436 23.2979 6.1274 19.6129 10.4845 20.3661C12.0672 20.6378 11.8765 20.8333 11.8765 20.8333C11.8765 20.8333 13.6069 23.0786 13.0349 25.2428Z" fill="#255A33"/>
<path d="M11.6572 15.3274C11.6572 15.3274 10.3653 16.829 13.7022 19.4986C16.1668 21.4769 13.769 23.4505 13.0348 25.2429C12.8537 25.691 13.8357 23.6411 11.5094 21.4149C9.8123 19.7941 9.07817 19.2411 11.6619 15.3226" fill="#128D45"/>
<path d="M14.9655 21.0572C14.9655 21.0572 19.418 16.2473 15.0895 12.3621C11.1519 8.82972 7.66717 6.03622 9.5883 2.17014C9.5883 2.17014 5.5792 7.17078 9.24507 10.9749C13.1112 14.984 17.1632 17.0863 14.9655 21.062" fill="#CB2129"/>
<path d="M29.5527 30.1959C30.0818 29.5237 30.9828 29.19 32.2652 29.19C33.0994 29.19 33.8431 29.3569 34.4914 29.6858C35.1397 30.0147 35.4639 30.644 35.4639 31.5593V35.0583C35.4639 35.3014 35.4686 35.5922 35.4782 35.9402C35.4925 36.2024 35.5306 36.3788 35.5973 36.4741C35.6641 36.5694 35.7594 36.6457 35.8929 36.7077V37.0032H33.7239C33.6619 36.8507 33.619 36.7029 33.5999 36.5694C33.5809 36.436 33.557 36.2787 33.5427 36.107C33.2662 36.4074 32.9516 36.66 32.5893 36.8698C32.1603 37.1177 31.674 37.2416 31.1354 37.2416C30.4441 37.2416 29.8769 37.0461 29.424 36.6505C28.9759 36.2548 28.7471 35.6971 28.7471 34.9725C28.7471 34.0334 29.1094 33.3565 29.8292 32.9369C30.2249 32.7081 30.8064 32.5461 31.5787 32.4459L32.2556 32.3601C32.6227 32.3125 32.8896 32.2553 33.047 32.1837C33.333 32.0646 33.476 31.8739 33.476 31.6165C33.476 31.3018 33.3663 31.0873 33.1518 30.9682C32.9373 30.849 32.6179 30.7918 32.1984 30.7918C31.7265 30.7918 31.3928 30.9062 31.1973 31.1398C31.0591 31.3114 30.9637 31.545 30.9161 31.8405H28.9902C29.0331 31.1731 29.219 30.6249 29.5479 30.1959H29.5527ZM31.0353 35.5541C31.2212 35.7066 31.45 35.7829 31.7217 35.7829C32.1507 35.7829 32.5464 35.6589 32.9087 35.4063C33.271 35.1536 33.4569 34.696 33.4712 34.0286V33.2897C33.3473 33.3707 33.2186 33.4327 33.0899 33.4804C32.9612 33.5281 32.7848 33.5757 32.5607 33.6186L32.1126 33.7044C31.6931 33.7807 31.3928 33.8713 31.2116 33.9762C30.9018 34.1573 30.7492 34.4386 30.7492 34.8247C30.7492 35.1632 30.8446 35.4111 31.0353 35.5588V35.5541Z" fill="#1A1B18"/>
</g>
</svg>
