<svg width="562" height="142" viewBox="0 0 562 142" fill="none" xmlns="http://www.w3.org/2000/svg">
<path d="M0.4 140V2.4H29.8L84 87.2H85V2.4H112.2V140H85.2L28.6 50.6H27.6V140H0.4ZM144.931 140V2.4H238.931V25.6H173.331V59H229.531V82.2H173.331V116.8H238.931V140H144.931ZM287.816 140L254.616 2.4H283.016L307.216 107H308.216L334.816 2.4H364.416L391.416 107H392.416L415.016 2.4H443.416L410.016 140H374.616L349.416 43.8H348.416L323.216 140H287.816ZM512.667 141.6C507.601 141.6 502.001 141.467 495.867 141.2C489.867 140.933 484.001 140.533 478.267 140C472.534 139.6 467.267 139.133 462.467 138.6V116C467.401 116.4 472.401 116.8 477.467 117.2C482.667 117.6 487.601 117.933 492.267 118.2C496.934 118.333 500.934 118.4 504.267 118.4C511.067 118.4 516.334 118.133 520.067 117.6C523.801 116.933 526.601 116 528.467 114.8C529.934 113.733 530.934 112.6 531.467 111.4C532.001 110.067 532.334 108.533 532.467 106.8C532.601 104.933 532.667 102.867 532.667 100.6C532.667 97.5333 532.467 95 532.067 93C531.801 91 531.267 89.4667 530.467 88.4C529.667 87.2 528.334 86.3333 526.467 85.8C524.734 85.2667 522.467 84.8667 519.667 84.6L488.867 80.8C482.734 80 477.667 78.6 473.667 76.6C469.801 74.6 466.734 71.9333 464.467 68.6C462.201 65.2667 460.601 61.3333 459.667 56.8C458.867 52.2667 458.467 47.1333 458.467 41.4C458.467 32.3333 459.734 25.1333 462.267 19.8C464.801 14.4667 468.334 10.4 472.867 7.59999C477.534 4.79999 483.001 3 489.267 2.2C495.534 1.26666 502.334 0.799992 509.667 0.799992C515.001 0.799992 520.467 0.999993 526.067 1.4C531.667 1.66666 536.934 2.06666 541.867 2.59999C546.801 3.13333 550.934 3.79999 554.267 4.59999V26.6C550.934 26.0667 547.067 25.6 542.667 25.2C538.267 24.8 533.667 24.5333 528.867 24.4C524.067 24.1333 519.534 24 515.267 24C509.001 24 504.001 24.2667 500.267 24.8C496.667 25.2 493.867 25.9333 491.867 27C489.601 28.3333 488.201 30.0667 487.667 32.2C487.267 34.3333 487.067 37 487.067 40.2C487.067 44.2 487.334 47.2667 487.867 49.4C488.401 51.4 489.667 52.8 491.667 53.6C493.667 54.4 496.801 55.0667 501.067 55.6L531.867 59.2C535.601 59.6 539.067 60.2667 542.267 61.2C545.467 62.1333 548.334 63.6 550.867 65.6C553.401 67.6 555.467 70.4 557.067 74C558.001 75.8667 558.734 78.0667 559.267 80.6C559.801 83 560.201 85.7333 560.467 88.8C560.867 91.8667 561.067 95.2667 561.067 99C561.067 106.733 560.267 113.2 558.667 118.4C557.201 123.6 555.067 127.733 552.267 130.8C549.467 133.867 546.001 136.2 541.867 137.8C537.867 139.4 533.401 140.4 528.467 140.8C523.534 141.333 518.267 141.6 512.667 141.6Z" fill="white" fill-opacity="0.05"/>
</svg>
