<svg width="749" height="142" viewBox="0 0 749 142" fill="none" xmlns="http://www.w3.org/2000/svg">
<path d="M0.4 140V2.4H64.2C72.7333 2.4 79.6667 3.46666 85 5.59999C90.4667 7.73333 94.6667 10.8 97.6 14.8C100.533 18.6667 102.533 23.4 103.6 29C104.8 34.6 105.4 40.9333 105.4 48C105.4 54.5333 104.867 60.6 103.8 66.2C102.867 71.6667 100.933 76.4667 98 80.6C95.0667 84.7333 90.8 87.9333 85.2 90.2C79.7333 92.4667 72.4667 93.6 63.4 93.6H28.8V140H0.4ZM28.8 70.4H52.2C57.9333 70.4 62.4667 70.1333 65.8 69.6C69.1333 68.9333 71.6 67.8 73.2 66.2C74.8 64.6 75.8 62.3333 76.2 59.4C76.7333 56.4667 77 52.6667 77 48C77 43.3333 76.7333 39.5333 76.2 36.6C75.8 33.6667 74.8 31.4 73.2 29.8C71.7333 28.0667 69.4 26.9333 66.2 26.4C63 25.7333 58.6 25.4 53 25.4H28.8V70.4ZM129.892 140V2.4H195.692C204.626 2.4 211.759 3.39999 217.092 5.39999C222.559 7.39999 226.692 10.3333 229.492 14.2C232.292 17.9333 234.159 22.5333 235.092 28C236.159 33.3333 236.692 39.3333 236.692 46C236.692 50.6667 236.292 55.6667 235.492 61C234.692 66.3333 232.892 71.2667 230.092 75.8C227.426 80.3333 223.159 83.6667 217.292 85.8L239.292 140H209.292L188.492 84.8L195.492 88.6C194.559 89 193.426 89.2667 192.092 89.4C190.892 89.5333 189.492 89.6 187.892 89.6H158.292V140H129.892ZM158.292 66.6H184.292C189.892 66.6 194.292 66.2667 197.492 65.6C200.692 64.9333 203.092 63.8667 204.692 62.4C206.292 60.8 207.292 58.7333 207.692 56.2C208.092 53.5333 208.292 50.1333 208.292 46C208.292 41.8667 208.092 38.4667 207.692 35.8C207.292 33.1333 206.359 31.0667 204.892 29.6C203.426 28.1333 201.026 27.0667 197.692 26.4C194.492 25.7333 190.092 25.4 184.492 25.4H158.292V66.6ZM265.048 140V2.4H293.448V140H265.048ZM379.581 141.6C369.448 141.6 360.981 140.933 354.181 139.6C347.381 138.267 341.848 136 337.581 132.8C333.315 129.6 330.048 125.333 327.781 120C325.648 114.667 324.181 108 323.381 100C322.581 92 322.181 82.4 322.181 71.2C322.181 60 322.581 50.4 323.381 42.4C324.181 34.4 325.648 27.7333 327.781 22.4C330.048 17.0667 333.315 12.8 337.581 9.6C341.848 6.39999 347.381 4.13332 354.181 2.79999C360.981 1.46666 369.448 0.799992 379.581 0.799992C383.448 0.799992 387.448 0.933328 391.581 1.2C395.848 1.46666 399.915 1.86666 403.781 2.4C407.648 2.93333 410.915 3.53333 413.581 4.2V26C409.981 25.6 406.515 25.2667 403.181 25C399.848 24.6 396.715 24.3333 393.781 24.2C390.981 24.0667 388.581 24 386.581 24C379.781 24 374.181 24.2667 369.781 24.8C365.381 25.3333 361.848 26.4667 359.181 28.2C356.648 29.8 354.781 32.3333 353.581 35.8C352.381 39.1333 351.581 43.6667 351.181 49.4C350.781 55.1333 350.581 62.4 350.581 71.2C350.581 79.8667 350.781 87.1333 351.181 93C351.581 98.7333 352.381 103.333 353.581 106.8C354.781 110.133 356.648 112.667 359.181 114.4C361.848 116 365.381 117.067 369.781 117.6C374.181 118.133 379.781 118.4 386.581 118.4C390.981 118.4 395.781 118.2 400.981 117.8C406.181 117.4 410.648 116.933 414.381 116.4V138.6C411.448 139.133 407.981 139.6 403.981 140C399.981 140.533 395.848 140.933 391.581 141.2C387.448 141.467 383.448 141.6 379.581 141.6ZM440.439 140V2.4H468.839V140H440.439ZM501.572 140V2.4H530.972L585.172 87.2H586.172V2.4H613.372V140H586.372L529.772 50.6H528.772V140H501.572ZM702.503 141.6C692.503 141.6 683.97 140.933 676.903 139.6C669.97 138.267 664.17 136.067 659.503 133C654.97 129.8 651.436 125.533 648.903 120.2C646.37 114.867 644.57 108.2 643.503 100.2C642.57 92.0667 642.103 82.4 642.103 71.2C642.103 60 642.57 50.4 643.503 42.4C644.57 34.2667 646.37 27.5333 648.903 22.2C651.57 16.8667 655.17 12.6667 659.703 9.6C664.37 6.39999 670.17 4.13332 677.103 2.79999C684.036 1.46666 692.503 0.799992 702.503 0.799992C706.903 0.799992 711.77 0.999993 717.103 1.4C722.57 1.79999 727.97 2.33332 733.303 2.99999C738.636 3.53332 743.57 4.26666 748.103 5.2V27C743.436 26.3333 738.903 25.8 734.503 25.4C730.103 25 726.103 24.6667 722.503 24.4C718.903 24.1333 715.903 24 713.503 24C705.903 24 699.57 24.2 694.503 24.6C689.436 24.8667 685.303 25.7333 682.103 27.2C678.903 28.6667 676.436 31.0667 674.703 34.4C673.103 37.7333 671.97 42.4 671.303 48.4C670.636 54.2667 670.303 61.8667 670.303 71.2C670.303 79.4667 670.503 86.4 670.903 92C671.436 97.6 672.303 102.2 673.503 105.8C674.836 109.4 676.703 112.2 679.103 114.2C681.636 116.067 684.836 117.333 688.703 118C692.703 118.667 697.636 119 703.503 119C705.636 119 707.836 119 710.103 119C712.503 118.867 714.703 118.733 716.703 118.6C718.836 118.467 720.57 118.333 721.903 118.2V84.2H698.903V61.8H748.703V137.2C744.17 138.133 739.103 138.933 733.503 139.6C727.903 140.133 722.436 140.6 717.103 141C711.77 141.4 706.903 141.6 702.503 141.6Z" fill="black" fill-opacity="0.04"/>
</svg>
