<svg width="10" height="183" viewBox="0 0 10 183" fill="none" xmlns="http://www.w3.org/2000/svg">
<path d="M9.096 179.112C9.096 179.416 9.088 179.752 9.072 180.12C9.056 180.48 9.032 180.832 9 181.176C8.976 181.52 8.948 181.836 8.916 182.124L7.56 182.124C7.584 181.828 7.608 181.528 7.632 181.224C7.656 180.912 7.676 180.616 7.692 180.336C7.7 180.056 7.704 179.816 7.704 179.616C7.704 179.208 7.688 178.892 7.656 178.668C7.616 178.444 7.56 178.276 7.488 178.164C7.424 178.076 7.356 178.016 7.284 177.984C7.204 177.952 7.112 177.932 7.008 177.924C6.896 177.916 6.772 177.912 6.636 177.912C6.452 177.912 6.3 177.924 6.18 177.948C6.06 177.964 5.968 177.996 5.904 178.044C5.832 178.092 5.78 178.172 5.748 178.284C5.716 178.388 5.692 178.524 5.676 178.692L5.448 180.54C5.4 180.908 5.316 181.212 5.196 181.452C5.076 181.684 4.916 181.868 4.716 182.004C4.516 182.14 4.28 182.236 4.008 182.292C3.736 182.34 3.428 182.364 3.084 182.364C2.54 182.364 2.108 182.288 1.788 182.136C1.468 181.984 1.224 181.772 1.056 181.5C0.887999 181.22 0.78 180.892 0.732 180.516C0.676 180.14 0.647999 179.732 0.647999 179.292C0.647999 178.972 0.659999 178.644 0.684 178.308C0.699999 177.972 0.723999 177.656 0.755999 177.36C0.787999 177.064 0.827999 176.816 0.875999 176.616L2.196 176.616C2.164 176.816 2.136 177.048 2.112 177.312C2.088 177.576 2.072 177.852 2.064 178.14C2.048 178.428 2.04 178.7 2.04 178.956C2.04 179.332 2.056 179.632 2.088 179.856C2.112 180.072 2.156 180.24 2.22 180.36C2.3 180.496 2.404 180.58 2.532 180.612C2.66 180.636 2.82 180.648 3.012 180.648C3.252 180.648 3.436 180.632 3.564 180.6C3.684 180.568 3.768 180.492 3.816 180.372C3.864 180.252 3.904 180.064 3.936 179.808L4.152 177.96C4.176 177.736 4.216 177.528 4.272 177.336C4.328 177.144 4.416 176.972 4.536 176.82C4.656 176.668 4.824 176.544 5.04 176.448C5.152 176.392 5.284 176.348 5.436 176.316C5.58 176.284 5.744 176.26 5.928 176.244C6.112 176.22 6.316 176.208 6.54 176.208C7.004 176.208 7.392 176.256 7.704 176.352C8.016 176.44 8.264 176.568 8.448 176.736C8.632 176.904 8.772 177.112 8.868 177.36C8.964 177.6 9.024 177.868 9.048 178.164C9.08 178.46 9.096 178.776 9.096 179.112ZM9.096 165.971C9.096 166.579 9.056 167.087 8.976 167.495C8.896 167.903 8.76 168.235 8.568 168.491C8.376 168.747 8.12 168.943 7.8 169.079C7.48 169.207 7.08 169.295 6.6 169.343C6.12 169.391 5.544 169.415 4.872 169.415C4.2 169.415 3.624 169.391 3.144 169.343C2.664 169.295 2.264 169.207 1.944 169.079C1.624 168.943 1.368 168.747 1.176 168.491C0.983999 168.235 0.847999 167.903 0.767999 167.495C0.687999 167.087 0.647999 166.579 0.647999 165.971C0.647999 165.739 0.655999 165.499 0.671999 165.251C0.687999 164.995 0.711999 164.751 0.743999 164.519C0.775999 164.287 0.811999 164.091 0.851999 163.931L2.16 163.931C2.136 164.147 2.116 164.355 2.1 164.555C2.076 164.755 2.06 164.943 2.052 165.119C2.044 165.287 2.04 165.431 2.04 165.551C2.04 165.959 2.056 166.295 2.088 166.559C2.12 166.823 2.188 167.035 2.292 167.195C2.388 167.347 2.54 167.459 2.748 167.531C2.948 167.603 3.22 167.651 3.564 167.675C3.908 167.699 4.344 167.711 4.872 167.711C5.392 167.711 5.828 167.699 6.18 167.675C6.524 167.651 6.8 167.603 7.008 167.531C7.208 167.459 7.36 167.347 7.464 167.195C7.56 167.035 7.624 166.823 7.656 166.559C7.688 166.295 7.704 165.959 7.704 165.551C7.704 165.287 7.692 164.999 7.668 164.687C7.644 164.375 7.616 164.107 7.584 163.883L8.916 163.883C8.948 164.059 8.976 164.267 9 164.507C9.032 164.747 9.056 164.995 9.072 165.251C9.088 165.499 9.096 165.739 9.096 165.971ZM9 156.919L0.743999 156.919L0.743998 152.971C0.743998 152.435 0.803998 152.007 0.923998 151.687C1.044 151.359 1.22 151.111 1.452 150.943C1.676 150.775 1.952 150.663 2.28 150.607C2.6 150.543 2.96 150.511 3.36 150.511C3.64 150.511 3.94 150.535 4.26 150.583C4.58 150.631 4.876 150.739 5.148 150.907C5.42 151.067 5.62 151.323 5.748 151.675L9 150.355L9 152.155L5.688 153.403L5.916 152.983C5.94 153.039 5.956 153.107 5.964 153.187C5.972 153.259 5.976 153.343 5.976 153.439L5.976 155.215L9 155.215L9 156.919ZM4.596 155.215L4.596 153.655C4.596 153.319 4.576 153.055 4.536 152.863C4.496 152.671 4.432 152.527 4.344 152.431C4.248 152.335 4.124 152.275 3.972 152.251C3.812 152.227 3.608 152.215 3.36 152.215C3.112 152.215 2.908 152.227 2.748 152.251C2.588 152.275 2.464 152.331 2.376 152.419C2.288 152.507 2.224 152.651 2.184 152.851C2.144 153.043 2.124 153.307 2.124 153.643L2.124 155.215L4.596 155.215ZM9.096 140.158C9.096 140.83 9.056 141.386 8.976 141.826C8.896 142.258 8.764 142.598 8.58 142.846C8.388 143.094 8.132 143.274 7.812 143.386C7.484 143.498 7.08 143.57 6.6 143.602C6.12 143.634 5.544 143.65 4.872 143.65C4.2 143.65 3.624 143.634 3.144 143.602C2.664 143.57 2.264 143.498 1.944 143.386C1.616 143.274 1.36 143.094 1.176 142.846C0.983998 142.598 0.847998 142.258 0.767998 141.826C0.687998 141.386 0.647998 140.83 0.647998 140.158C0.647998 139.486 0.687998 138.934 0.767997 138.502C0.847997 138.062 0.983998 137.718 1.176 137.47C1.36 137.222 1.616 137.042 1.944 136.93C2.264 136.81 2.664 136.734 3.144 136.702C3.624 136.67 4.2 136.654 4.872 136.654C5.544 136.654 6.12 136.67 6.6 136.702C7.08 136.734 7.484 136.81 7.812 136.93C8.132 137.042 8.388 137.222 8.58 137.47C8.764 137.718 8.896 138.062 8.976 138.502C9.056 138.934 9.096 139.486 9.096 140.158ZM7.704 140.158C7.704 139.806 7.692 139.522 7.668 139.306C7.644 139.082 7.588 138.906 7.5 138.778C7.412 138.65 7.268 138.558 7.068 138.502C6.868 138.438 6.592 138.398 6.24 138.382C5.888 138.366 5.432 138.358 4.872 138.358C4.312 138.358 3.856 138.366 3.504 138.382C3.152 138.398 2.876 138.438 2.676 138.502C2.476 138.558 2.332 138.65 2.244 138.778C2.156 138.906 2.1 139.082 2.076 139.306C2.052 139.522 2.04 139.806 2.04 140.158C2.04 140.502 2.052 140.786 2.076 141.01C2.1 141.226 2.156 141.398 2.244 141.526C2.332 141.654 2.476 141.75 2.676 141.814C2.876 141.87 3.152 141.906 3.504 141.922C3.856 141.938 4.312 141.946 4.872 141.946C5.432 141.946 5.888 141.938 6.24 141.922C6.592 141.906 6.868 141.87 7.068 141.814C7.268 141.75 7.412 141.654 7.5 141.526C7.588 141.398 7.644 141.226 7.668 141.01C7.692 140.786 7.704 140.502 7.704 140.158ZM9 129.525L0.743997 129.525L0.743997 127.821L7.56 127.821L7.56 124.365L9 124.365L9 129.525ZM9 117.668L0.743997 117.668L0.743997 115.964L7.56 115.964L7.56 112.508L9 112.508L9 117.668ZM9 97.4465L0.743996 97.4465L0.743996 92.0465L2.136 92.0465L2.136 95.7425L4.368 95.7425L4.368 92.4905L5.76 92.4905L5.76 95.7425L9 95.7425L9 97.4465ZM9.096 81.9624C9.096 82.6344 9.056 83.1904 8.976 83.6304C8.896 84.0624 8.764 84.4024 8.58 84.6504C8.388 84.8984 8.132 85.0784 7.812 85.1904C7.484 85.3024 7.08 85.3744 6.6 85.4064C6.12 85.4384 5.544 85.4544 4.872 85.4544C4.2 85.4544 3.624 85.4384 3.144 85.4064C2.664 85.3744 2.264 85.3024 1.944 85.1904C1.616 85.0784 1.36 84.8984 1.176 84.6504C0.983995 84.4024 0.847995 84.0624 0.767995 83.6304C0.687995 83.1904 0.647995 82.6344 0.647995 81.9624C0.647995 81.2904 0.687995 80.7384 0.767995 80.3064C0.847995 79.8664 0.983995 79.5224 1.176 79.2744C1.36 79.0264 1.616 78.8464 1.944 78.7344C2.264 78.6144 2.66399 78.5384 3.144 78.5064C3.624 78.4744 4.2 78.4584 4.872 78.4584C5.544 78.4584 6.12 78.4744 6.6 78.5064C7.08 78.5384 7.484 78.6144 7.812 78.7344C8.132 78.8464 8.388 79.0264 8.58 79.2744C8.764 79.5224 8.896 79.8664 8.976 80.3064C9.056 80.7384 9.096 81.2904 9.096 81.9624ZM7.704 81.9624C7.704 81.6104 7.692 81.3264 7.668 81.1104C7.644 80.8864 7.588 80.7104 7.5 80.5824C7.412 80.4544 7.268 80.3624 7.068 80.3064C6.868 80.2424 6.592 80.2024 6.24 80.1864C5.888 80.1704 5.432 80.1624 4.872 80.1624C4.312 80.1624 3.856 80.1704 3.504 80.1864C3.152 80.2024 2.876 80.2424 2.676 80.3064C2.476 80.3624 2.332 80.4544 2.244 80.5824C2.156 80.7104 2.1 80.8864 2.076 81.1104C2.052 81.3264 2.04 81.6104 2.04 81.9624C2.04 82.3064 2.052 82.5904 2.076 82.8144C2.1 83.0304 2.156 83.2024 2.244 83.3304C2.332 83.4584 2.476 83.5544 2.676 83.6184C2.876 83.6744 3.152 83.7104 3.504 83.7264C3.856 83.7424 4.312 83.7504 4.872 83.7504C5.432 83.7504 5.888 83.7424 6.24 83.7264C6.592 83.7104 6.868 83.6744 7.068 83.6184C7.268 83.5544 7.412 83.4584 7.5 83.3304C7.588 83.2024 7.644 83.0304 7.668 82.8144C7.692 82.5904 7.704 82.3064 7.704 81.9624ZM9 71.3301L0.743995 71.3301L0.743995 67.3821C0.743995 66.8461 0.803995 66.4181 0.923994 66.0981C1.04399 65.7701 1.21999 65.5221 1.45199 65.3541C1.67599 65.1861 1.95199 65.0741 2.27999 65.0181C2.59999 64.9541 2.95999 64.9221 3.35999 64.9221C3.63999 64.9221 3.93999 64.9461 4.25999 64.9941C4.57999 65.0421 4.87599 65.1501 5.14799 65.3181C5.41999 65.4781 5.61999 65.7341 5.74799 66.0861L8.99999 64.7661L8.99999 66.5661L5.68799 67.8141L5.91599 67.3941C5.93999 67.4501 5.95599 67.5181 5.96399 67.5981C5.97199 67.6701 5.97599 67.7541 5.97599 67.8501L5.97599 69.6261L9 69.6261L9 71.3301ZM4.59599 69.6261L4.59599 68.0661C4.59599 67.7301 4.57599 67.4661 4.53599 67.2741C4.49599 67.0821 4.43199 66.9381 4.34399 66.8421C4.24799 66.7461 4.12399 66.6861 3.97199 66.6621C3.81199 66.6381 3.60799 66.6261 3.35999 66.6261C3.11199 66.6261 2.90799 66.6381 2.74799 66.6621C2.58799 66.6861 2.46399 66.7421 2.37599 66.8301C2.28799 66.9181 2.22399 67.0621 2.18399 67.2621C2.14399 67.4541 2.12399 67.7181 2.12399 68.0541L2.12399 69.6261L4.59599 69.6261ZM8.99999 49.4558L0.743994 49.4558L0.743994 47.1158L6.19199 45.0758L6.19199 45.0038L0.743994 42.9758L0.743993 40.6478L8.99999 40.6478L8.99999 42.2918L3.25199 42.2918L3.25199 42.3518L8.99999 44.4878L8.99999 45.6638L3.25199 47.7998L3.25199 47.8598L8.99999 47.8598L8.99999 49.4558ZM9.09599 30.0109C9.09599 30.6829 9.05599 31.2389 8.97599 31.6789C8.89599 32.1109 8.76399 32.4509 8.57999 32.6989C8.38799 32.9469 8.13199 33.1269 7.81199 33.2389C7.48399 33.3509 7.07999 33.4229 6.59999 33.4549C6.11999 33.4869 5.54399 33.5029 4.87199 33.5029C4.19999 33.5029 3.62399 33.4869 3.14399 33.4549C2.66399 33.4229 2.26399 33.3509 1.94399 33.2389C1.61599 33.1269 1.35999 32.9469 1.17599 32.6989C0.983993 32.4509 0.847993 32.1109 0.767993 31.6789C0.687993 31.2389 0.647993 30.6829 0.647993 30.0109C0.647993 29.3389 0.687993 28.7869 0.767993 28.3549C0.847993 27.9149 0.983993 27.5709 1.17599 27.3229C1.35999 27.0749 1.61599 26.8949 1.94399 26.7829C2.26399 26.6629 2.66399 26.5869 3.14399 26.5549C3.62399 26.5229 4.19999 26.5069 4.87199 26.5069C5.54399 26.5069 6.11999 26.5229 6.59999 26.5549C7.07999 26.5869 7.48399 26.6629 7.81199 26.7829C8.13199 26.8949 8.38799 27.0749 8.57999 27.3229C8.76399 27.5709 8.89599 27.9149 8.97599 28.3549C9.05599 28.7869 9.09599 29.3389 9.09599 30.0109ZM7.70399 30.0109C7.70399 29.6589 7.69199 29.3749 7.66799 29.1589C7.64399 28.9349 7.58799 28.7589 7.49999 28.6309C7.41199 28.5029 7.26799 28.4109 7.06799 28.3549C6.86799 28.2909 6.59199 28.2509 6.23999 28.2349C5.88799 28.2189 5.43199 28.2109 4.87199 28.2109C4.31199 28.2109 3.85599 28.2189 3.50399 28.2349C3.15199 28.2509 2.87599 28.2909 2.67599 28.3549C2.47599 28.4109 2.33199 28.5029 2.24399 28.6309C2.15599 28.7589 2.09999 28.9349 2.07599 29.1589C2.05199 29.3749 2.03999 29.6589 2.03999 30.0109C2.03999 30.3549 2.05199 30.6389 2.07599 30.8629C2.09999 31.0789 2.15599 31.2509 2.24399 31.3789C2.33199 31.5069 2.47599 31.6029 2.67599 31.6669C2.87599 31.7229 3.15199 31.7589 3.50399 31.7749C3.85599 31.7909 4.31199 31.7989 4.87199 31.7989C5.43199 31.7989 5.88799 31.7909 6.23999 31.7749C6.59199 31.7589 6.86799 31.7229 7.06799 31.6669C7.26799 31.6029 7.41199 31.5069 7.49999 31.3789C7.58799 31.2509 7.64399 31.0789 7.66799 30.8629C7.69199 30.6389 7.70399 30.3549 7.70399 30.0109ZM8.99999 19.3785L0.743993 19.3785L0.743992 15.4305C0.743992 14.8945 0.803992 14.4665 0.923992 14.1465C1.04399 13.8185 1.21999 13.5705 1.45199 13.4025C1.67599 13.2345 1.95199 13.1225 2.27999 13.0665C2.59999 13.0025 2.95999 12.9705 3.35999 12.9705C3.63999 12.9705 3.93999 12.9945 4.25999 13.0425C4.57999 13.0905 4.87599 13.1985 5.14799 13.3665C5.41999 13.5265 5.61999 13.7825 5.74799 14.1345L8.99999 12.8145L8.99999 14.6145L5.68799 15.8625L5.91599 15.4425C5.93999 15.4985 5.95599 15.5665 5.96399 15.6465C5.97199 15.7185 5.97599 15.8025 5.97599 15.8985L5.97599 17.6745L8.99999 17.6745L8.99999 19.3785ZM4.59599 17.6745L4.59599 16.1145C4.59599 15.7785 4.57599 15.5145 4.53599 15.3225C4.49599 15.1305 4.43199 14.9865 4.34399 14.8905C4.24799 14.7945 4.12399 14.7345 3.97199 14.7105C3.81199 14.6865 3.60799 14.6745 3.35999 14.6745C3.11199 14.6745 2.90799 14.6865 2.74799 14.7105C2.58799 14.7345 2.46399 14.7905 2.37599 14.8785C2.28799 14.9665 2.22399 15.1105 2.18399 15.3105C2.14399 15.5025 2.12399 15.7665 2.12399 16.1025L2.12399 17.6745L4.59599 17.6745ZM8.99999 5.86912L0.743992 5.86912L0.743992 0.229118L2.13599 0.229118L2.13599 4.16512L4.13999 4.16512L4.13999 0.793119L5.53199 0.793118L5.53199 4.16512L7.60799 4.16512L7.60799 0.229118L8.99999 0.229118L8.99999 5.86912Z" fill="#4D4D4D"/>
</svg>
