<svg width="220" height="35" viewBox="0 0 220 35" fill="none" xmlns="http://www.w3.org/2000/svg">
<path d="M13.552 34.384C12.336 34.384 10.992 34.352 9.52 34.288C8.08 34.224 6.672 34.128 5.296 34C3.92 33.904 2.656 33.792 1.504 33.664V28.24C2.688 28.336 3.888 28.432 5.104 28.528C6.352 28.624 7.536 28.704 8.656 28.768C9.776 28.8 10.736 28.816 11.536 28.816C13.168 28.816 14.432 28.752 15.328 28.624C16.224 28.464 16.896 28.24 17.344 27.952C17.696 27.696 17.936 27.424 18.064 27.136C18.192 26.816 18.272 26.448 18.304 26.032C18.336 25.584 18.352 25.088 18.352 24.544C18.352 23.808 18.304 23.2 18.208 22.72C18.144 22.24 18.016 21.872 17.824 21.616C17.632 21.328 17.312 21.12 16.864 20.992C16.448 20.864 15.904 20.768 15.232 20.704L7.84 19.792C6.368 19.6 5.152 19.264 4.192 18.784C3.264 18.304 2.528 17.664 1.984 16.864C1.44 16.064 1.056 15.12 0.832 14.032C0.64 12.944 0.544 11.712 0.544 10.336C0.544 8.16 0.848 6.432 1.456 5.152C2.064 3.872 2.912 2.896 4 2.224C5.12 1.552 6.432 1.12 7.936 0.927999C9.44 0.703999 11.072 0.591998 12.832 0.591998C14.112 0.591998 15.424 0.639998 16.768 0.735999C18.112 0.799998 19.376 0.895998 20.56 1.024C21.744 1.152 22.736 1.312 23.536 1.504V6.784C22.736 6.656 21.808 6.544 20.752 6.448C19.696 6.352 18.592 6.288 17.44 6.256C16.288 6.192 15.2 6.16 14.176 6.16C12.672 6.16 11.472 6.224 10.576 6.352C9.712 6.448 9.04 6.624 8.56 6.88C8.016 7.2 7.68 7.616 7.552 8.128C7.456 8.64 7.408 9.28 7.408 10.048C7.408 11.008 7.472 11.744 7.6 12.256C7.728 12.736 8.032 13.072 8.512 13.264C8.992 13.456 9.744 13.616 10.768 13.744L18.16 14.608C19.056 14.704 19.888 14.864 20.656 15.088C21.424 15.312 22.112 15.664 22.72 16.144C23.328 16.624 23.824 17.296 24.208 18.16C24.432 18.608 24.608 19.136 24.736 19.744C24.864 20.32 24.96 20.976 25.024 21.712C25.12 22.448 25.168 23.264 25.168 24.16C25.168 26.016 24.976 27.568 24.592 28.816C24.24 30.064 23.728 31.056 23.056 31.792C22.384 32.528 21.552 33.088 20.56 33.472C19.6 33.856 18.528 34.096 17.344 34.192C16.16 34.32 14.896 34.384 13.552 34.384ZM31.7016 34V0.975999H54.2616V6.544H38.5176V14.56H52.0056V20.128H38.5176V28.432H54.2616V34H31.7016ZM60.8579 34V0.975999H76.6499C78.7939 0.975999 80.5059 1.216 81.7859 1.696C83.0979 2.176 84.0899 2.88 84.7619 3.808C85.4339 4.704 85.8819 5.808 86.1059 7.12C86.3619 8.4 86.4899 9.84 86.4899 11.44C86.4899 12.56 86.3939 13.76 86.2019 15.04C86.0099 16.32 85.5779 17.504 84.9059 18.592C84.2659 19.68 83.2419 20.48 81.8339 20.992L87.1139 34H79.9139L74.9219 20.752L76.6019 21.664C76.3779 21.76 76.1059 21.824 75.7859 21.856C75.4979 21.888 75.1619 21.904 74.7779 21.904H67.6739V34H60.8579ZM67.6739 16.384H73.9139C75.2579 16.384 76.3139 16.304 77.0819 16.144C77.8499 15.984 78.4259 15.728 78.8099 15.376C79.1939 14.992 79.4339 14.496 79.5299 13.888C79.6259 13.248 79.6739 12.432 79.6739 11.44C79.6739 10.448 79.6259 9.632 79.5299 8.992C79.4339 8.352 79.2099 7.856 78.8579 7.504C78.5059 7.152 77.9299 6.896 77.1299 6.736C76.3619 6.576 75.3059 6.496 73.9619 6.496H67.6739V16.384ZM100.501 34L89.941 0.975999H96.949L105.013 26.752H105.253L113.221 0.975999H120.085L109.525 34H100.501ZM124.889 34V0.975999H131.705V34H124.889ZM152.377 34.384C149.945 34.384 147.913 34.224 146.281 33.904C144.649 33.584 143.321 33.04 142.297 32.272C141.273 31.504 140.489 30.48 139.945 29.2C139.433 27.92 139.081 26.32 138.889 24.4C138.697 22.48 138.601 20.176 138.601 17.488C138.601 14.8 138.697 12.496 138.889 10.576C139.081 8.656 139.433 7.056 139.945 5.776C140.489 4.496 141.273 3.472 142.297 2.704C143.321 1.936 144.649 1.392 146.281 1.072C147.913 0.751998 149.945 0.591998 152.377 0.591998C153.305 0.591998 154.265 0.623999 155.257 0.688C156.281 0.751999 157.257 0.847999 158.185 0.975999C159.113 1.104 159.897 1.248 160.537 1.408V6.64C159.673 6.544 158.841 6.464 158.041 6.4C157.241 6.304 156.489 6.24 155.785 6.208C155.113 6.176 154.537 6.16 154.057 6.16C152.425 6.16 151.081 6.224 150.025 6.352C148.969 6.48 148.121 6.752 147.481 7.168C146.873 7.552 146.425 8.16 146.137 8.992C145.849 9.792 145.657 10.88 145.561 12.256C145.465 13.632 145.417 15.376 145.417 17.488C145.417 19.568 145.465 21.312 145.561 22.72C145.657 24.096 145.849 25.2 146.137 26.032C146.425 26.832 146.873 27.44 147.481 27.856C148.121 28.24 148.969 28.496 150.025 28.624C151.081 28.752 152.425 28.816 154.057 28.816C155.113 28.816 156.265 28.768 157.513 28.672C158.761 28.576 159.833 28.464 160.729 28.336V33.664C160.025 33.792 159.193 33.904 158.233 34C157.273 34.128 156.281 34.224 155.257 34.288C154.265 34.352 153.305 34.384 152.377 34.384ZM166.983 34V0.975999H189.543V6.544H173.799V14.56H187.287V20.128H173.799V28.432H189.543V34H166.983ZM207.755 34.384C206.539 34.384 205.195 34.352 203.723 34.288C202.283 34.224 200.875 34.128 199.499 34C198.123 33.904 196.859 33.792 195.707 33.664V28.24C196.891 28.336 198.091 28.432 199.307 28.528C200.555 28.624 201.739 28.704 202.859 28.768C203.979 28.8 204.939 28.816 205.739 28.816C207.371 28.816 208.635 28.752 209.531 28.624C210.427 28.464 211.099 28.24 211.547 27.952C211.899 27.696 212.139 27.424 212.267 27.136C212.395 26.816 212.475 26.448 212.507 26.032C212.539 25.584 212.555 25.088 212.555 24.544C212.555 23.808 212.507 23.2 212.411 22.72C212.347 22.24 212.219 21.872 212.027 21.616C211.835 21.328 211.515 21.12 211.067 20.992C210.651 20.864 210.107 20.768 209.435 20.704L202.043 19.792C200.571 19.6 199.355 19.264 198.395 18.784C197.467 18.304 196.731 17.664 196.187 16.864C195.643 16.064 195.259 15.12 195.035 14.032C194.843 12.944 194.747 11.712 194.747 10.336C194.747 8.16 195.051 6.432 195.659 5.152C196.267 3.872 197.115 2.896 198.203 2.224C199.323 1.552 200.635 1.12 202.139 0.927999C203.643 0.703999 205.275 0.591998 207.035 0.591998C208.315 0.591998 209.627 0.639998 210.971 0.735999C212.315 0.799998 213.579 0.895998 214.763 1.024C215.947 1.152 216.939 1.312 217.739 1.504V6.784C216.939 6.656 216.011 6.544 214.955 6.448C213.899 6.352 212.795 6.288 211.643 6.256C210.491 6.192 209.403 6.16 208.379 6.16C206.875 6.16 205.675 6.224 204.779 6.352C203.915 6.448 203.243 6.624 202.763 6.88C202.219 7.2 201.883 7.616 201.755 8.128C201.659 8.64 201.611 9.28 201.611 10.048C201.611 11.008 201.675 11.744 201.803 12.256C201.931 12.736 202.235 13.072 202.715 13.264C203.195 13.456 203.947 13.616 204.971 13.744L212.363 14.608C213.259 14.704 214.091 14.864 214.859 15.088C215.627 15.312 216.315 15.664 216.923 16.144C217.531 16.624 218.027 17.296 218.411 18.16C218.635 18.608 218.811 19.136 218.939 19.744C219.067 20.32 219.163 20.976 219.227 21.712C219.323 22.448 219.371 23.264 219.371 24.16C219.371 26.016 219.179 27.568 218.795 28.816C218.443 30.064 217.931 31.056 217.259 31.792C216.587 32.528 215.755 33.088 214.763 33.472C213.803 33.856 212.731 34.096 211.547 34.192C210.363 34.32 209.099 34.384 207.755 34.384Z" fill="black" fill-opacity="0.04"/>
</svg>
