<svg xmlns="http://www.w3.org/2000/svg" width="1081" height="142" viewBox="0 0 1275 142" fill="none"><script xmlns="" id="eppiocemhmnlbhjplcgkofciiegomcon"/><script xmlns=""/><script xmlns=""/>
<path d="M54.8 141.6C45.0667 141.6 36.9333 141 30.4 139.8C23.8667 138.6 18.6 136.667 14.6 134C10.6 131.333 7.53333 127.6 5.4 122.8C3.4 118 2 112 1.2 104.8C0.533334 97.4667 0.200001 88.7333 0.200001 78.6V2.4H28.6V85.8C28.6 92.8667 28.8 98.6 29.2 103C29.7333 107.267 30.7333 110.533 32.2 112.8C33.8 115.067 36.4 116.6 40 117.4C43.6 118.067 48.5333 118.4 54.8 118.4C61.0667 118.4 65.9333 118.067 69.4 117.4C73 116.6 75.6 115.067 77.2 112.8C78.8 110.533 79.8 107.267 80.2 103C80.6 98.6 80.8 92.8667 80.8 85.8V2.4H109.2V78.6C109.2 88.7333 108.8 97.4667 108 104.8C107.333 112 106 118 104 122.8C102 127.6 99 131.333 95 134C91 136.667 85.7333 138.6 79.2 139.8C72.6667 141 64.5333 141.6 54.8 141.6ZM127.648 140L174.248 2.4H212.248L258.848 140H229.848L219.648 109.6H165.848L156.048 140H127.648ZM173.048 86.6H212.248L193.248 28.2H192.048L173.048 86.6ZM278.158 140V2.4H372.158V25.6H306.558V59H362.758V82.2H306.558V116.8H372.158V140H278.158ZM476.656 140V26.4H436.856V2.4H544.856V26.4H505.056V140H476.656ZM619.663 141.6C608.463 141.6 599.196 140.933 591.863 139.6C584.663 138.267 578.996 136.067 574.863 133C570.729 129.8 567.729 125.533 565.863 120.2C563.996 114.733 562.796 108 562.262 100C561.729 92 561.463 82.4 561.463 71.2C561.463 60 561.729 50.4 562.262 42.4C562.796 34.4 563.996 27.7333 565.863 22.4C567.729 16.9333 570.729 12.6667 574.863 9.6C578.996 6.39999 584.663 4.13332 591.863 2.79999C599.196 1.46666 608.463 0.799992 619.663 0.799992C630.863 0.799992 640.063 1.46666 647.263 2.79999C654.596 4.13332 660.329 6.39999 664.463 9.6C668.596 12.6667 671.596 16.9333 673.463 22.4C675.463 27.7333 676.729 34.4 677.263 42.4C677.796 50.4 678.063 60 678.063 71.2C678.063 82.4 677.796 92 677.263 100C676.729 108 675.463 114.733 673.463 120.2C671.596 125.533 668.596 129.8 664.463 133C660.329 136.067 654.596 138.267 647.263 139.6C640.063 140.933 630.863 141.6 619.663 141.6ZM619.663 118.4C625.529 118.4 630.263 118.2 633.863 117.8C637.596 117.4 640.529 116.467 642.663 115C644.796 113.533 646.329 111.133 647.263 107.8C648.329 104.467 648.996 99.8667 649.263 94C649.529 88.1333 649.663 80.5333 649.663 71.2C649.663 61.8667 649.529 54.2667 649.263 48.4C648.996 42.5333 648.329 37.9333 647.263 34.6C646.329 31.2667 644.796 28.8667 642.663 27.4C640.529 25.9333 637.596 25 633.863 24.6C630.263 24.2 625.529 24 619.663 24C613.929 24 609.196 24.2 605.463 24.6C601.863 25 598.996 25.9333 596.863 27.4C594.729 28.8667 593.129 31.2667 592.063 34.6C591.129 37.9333 590.529 42.5333 590.263 48.4C589.996 54.2667 589.863 61.8667 589.863 71.2C589.863 80.5333 589.996 88.1333 590.263 94C590.529 99.8667 591.129 104.467 592.063 107.8C593.129 111.133 594.729 113.533 596.863 115C598.996 116.467 601.863 117.4 605.463 117.8C609.196 118.2 613.929 118.4 619.663 118.4ZM760.269 141.6C750.535 141.6 742.402 141 735.869 139.8C729.335 138.6 724.069 136.667 720.069 134C716.069 131.333 713.002 127.6 710.869 122.8C708.869 118 707.469 112 706.669 104.8C706.002 97.4667 705.669 88.7333 705.669 78.6V2.4H734.069V85.8C734.069 92.8667 734.269 98.6 734.669 103C735.202 107.267 736.202 110.533 737.669 112.8C739.269 115.067 741.869 116.6 745.469 117.4C749.069 118.067 754.002 118.4 760.269 118.4C766.535 118.4 771.402 118.067 774.869 117.4C778.469 116.6 781.069 115.067 782.669 112.8C784.269 110.533 785.269 107.267 785.669 103C786.069 98.6 786.269 92.8667 786.269 85.8V2.4H814.669V78.6C814.669 88.7333 814.269 97.4667 813.469 104.8C812.802 112 811.469 118 809.469 122.8C807.469 127.6 804.469 131.333 800.469 134C796.469 136.667 791.202 138.6 784.669 139.8C778.135 141 770.002 141.6 760.269 141.6ZM846.517 140V2.4H912.317C921.251 2.4 928.384 3.39999 933.717 5.39999C939.184 7.39999 943.317 10.3333 946.117 14.2C948.917 17.9333 950.784 22.5333 951.717 28C952.784 33.3333 953.317 39.3333 953.317 46C953.317 50.6667 952.917 55.6667 952.117 61C951.317 66.3333 949.517 71.2667 946.717 75.8C944.051 80.3333 939.784 83.6667 933.917 85.8L955.917 140H925.917L905.117 84.8L912.117 88.6C911.184 89 910.051 89.2667 908.717 89.4C907.517 89.5333 906.117 89.6 904.517 89.6H874.917V140H846.517ZM874.917 66.6H900.917C906.517 66.6 910.917 66.2667 914.117 65.6C917.317 64.9333 919.717 63.8667 921.317 62.4C922.917 60.8 923.917 58.7333 924.317 56.2C924.717 53.5333 924.917 50.1333 924.917 46C924.917 41.8667 924.717 38.4667 924.317 35.8C923.917 33.1333 922.984 31.0667 921.517 29.6C920.051 28.1333 917.651 27.0667 914.317 26.4C911.117 25.7333 906.717 25.4 901.117 25.4H874.917V66.6ZM981.673 140V2.4H1010.07V140H981.673ZM1091.21 141.6C1086.14 141.6 1080.54 141.467 1074.41 141.2C1068.41 140.933 1062.54 140.533 1056.81 140C1051.07 139.6 1045.81 139.133 1041.01 138.6V116C1045.94 116.4 1050.94 116.8 1056.01 117.2C1061.21 117.6 1066.14 117.933 1070.81 118.2C1075.47 118.333 1079.47 118.4 1082.81 118.4C1089.61 118.4 1094.87 118.133 1098.61 117.6C1102.34 116.933 1105.14 116 1107.01 114.8C1108.47 113.733 1109.47 112.6 1110.01 111.4C1110.54 110.067 1110.87 108.533 1111.01 106.8C1111.14 104.933 1111.21 102.867 1111.21 100.6C1111.21 97.5333 1111.01 95 1110.61 93C1110.34 91 1109.81 89.4667 1109.01 88.4C1108.21 87.2 1106.87 86.3333 1105.01 85.8C1103.27 85.2667 1101.01 84.8667 1098.21 84.6L1067.41 80.8C1061.27 80 1056.21 78.6 1052.21 76.6C1048.34 74.6 1045.27 71.9333 1043.01 68.6C1040.74 65.2667 1039.14 61.3333 1038.21 56.8C1037.41 52.2667 1037.01 47.1333 1037.01 41.4C1037.01 32.3333 1038.27 25.1333 1040.81 19.8C1043.34 14.4667 1046.87 10.4 1051.41 7.59999C1056.07 4.79999 1061.54 3 1067.81 2.2C1074.07 1.26666 1080.87 0.799992 1088.21 0.799992C1093.54 0.799992 1099.01 0.999993 1104.61 1.4C1110.21 1.66666 1115.47 2.06666 1120.41 2.59999C1125.34 3.13333 1129.47 3.79999 1132.81 4.59999V26.6C1129.47 26.0667 1125.61 25.6 1121.21 25.2C1116.81 24.8 1112.21 24.5333 1107.41 24.4C1102.61 24.1333 1098.07 24 1093.81 24C1087.54 24 1082.54 24.2667 1078.81 24.8C1075.21 25.2 1072.41 25.9333 1070.41 27C1068.14 28.3333 1066.74 30.0667 1066.21 32.2C1065.81 34.3333 1065.61 37 1065.61 40.2C1065.61 44.2 1065.87 47.2667 1066.41 49.4C1066.94 51.4 1068.21 52.8 1070.21 53.6C1072.21 54.4 1075.34 55.0667 1079.61 55.6L1110.41 59.2C1114.14 59.6 1117.61 60.2667 1120.81 61.2C1124.01 62.1333 1126.87 63.6 1129.41 65.6C1131.94 67.6 1134.01 70.4 1135.61 74C1136.54 75.8667 1137.27 78.0667 1137.81 80.6C1138.34 83 1138.74 85.7333 1139.01 88.8C1139.41 91.8667 1139.61 95.2667 1139.61 99C1139.61 106.733 1138.81 113.2 1137.21 118.4C1135.74 123.6 1133.61 127.733 1130.81 130.8C1128.01 133.867 1124.54 136.2 1120.41 137.8C1116.41 139.4 1111.94 140.4 1107.01 140.8C1102.07 141.333 1096.81 141.6 1091.21 141.6ZM1194.43 140V26.4H1154.63V2.4H1262.63V26.4H1222.83V140H1194.43ZM1360.72 140L1316.72 2.4H1345.92L1379.52 109.8H1380.52L1413.72 2.4H1442.32L1398.32 140H1360.72ZM1462.34 140V2.4H1490.74V140H1462.34ZM1571.87 141.6C1566.8 141.6 1561.2 141.467 1555.07 141.2C1549.07 140.933 1543.2 140.533 1537.47 140C1531.74 139.6 1526.47 139.133 1521.67 138.6V116C1526.6 116.4 1531.6 116.8 1536.67 117.2C1541.87 117.6 1546.8 117.933 1551.47 118.2C1556.14 118.333 1560.14 118.4 1563.47 118.4C1570.27 118.4 1575.54 118.133 1579.27 117.6C1583 116.933 1585.8 116 1587.67 114.8C1589.14 113.733 1590.14 112.6 1590.67 111.4C1591.2 110.067 1591.54 108.533 1591.67 106.8C1591.8 104.933 1591.87 102.867 1591.87 100.6C1591.87 97.5333 1591.67 95 1591.27 93C1591 91 1590.47 89.4667 1589.67 88.4C1588.87 87.2 1587.54 86.3333 1585.67 85.8C1583.94 85.2667 1581.67 84.8667 1578.87 84.6L1548.07 80.8C1541.94 80 1536.87 78.6 1532.87 76.6C1529 74.6 1525.94 71.9333 1523.67 68.6C1521.4 65.2667 1519.8 61.3333 1518.87 56.8C1518.07 52.2667 1517.67 47.1333 1517.67 41.4C1517.67 32.3333 1518.94 25.1333 1521.47 19.8C1524 14.4667 1527.54 10.4 1532.07 7.59999C1536.74 4.79999 1542.2 3 1548.47 2.2C1554.74 1.26666 1561.54 0.799992 1568.87 0.799992C1574.2 0.799992 1579.67 0.999993 1585.27 1.4C1590.87 1.66666 1596.14 2.06666 1601.07 2.59999C1606 3.13333 1610.14 3.79999 1613.47 4.59999V26.6C1610.14 26.0667 1606.27 25.6 1601.87 25.2C1597.47 24.8 1592.87 24.5333 1588.07 24.4C1583.27 24.1333 1578.74 24 1574.47 24C1568.2 24 1563.2 24.2667 1559.47 24.8C1555.87 25.2 1553.07 25.9333 1551.07 27C1548.8 28.3333 1547.4 30.0667 1546.87 32.2C1546.47 34.3333 1546.27 37 1546.27 40.2C1546.27 44.2 1546.54 47.2667 1547.07 49.4C1547.6 51.4 1548.87 52.8 1550.87 53.6C1552.87 54.4 1556 55.0667 1560.27 55.6L1591.07 59.2C1594.8 59.6 1598.27 60.2667 1601.47 61.2C1604.67 62.1333 1607.54 63.6 1610.07 65.6C1612.6 67.6 1614.67 70.4 1616.27 74C1617.2 75.8667 1617.94 78.0667 1618.47 80.6C1619 83 1619.4 85.7333 1619.67 88.8C1620.07 91.8667 1620.27 95.2667 1620.27 99C1620.27 106.733 1619.47 113.2 1617.87 118.4C1616.4 123.6 1614.27 127.733 1611.47 130.8C1608.67 133.867 1605.2 136.2 1601.07 137.8C1597.07 139.4 1592.6 140.4 1587.67 140.8C1582.74 141.333 1577.47 141.6 1571.87 141.6ZM1634.09 140L1680.69 2.4H1718.69L1765.29 140H1736.29L1726.09 109.6H1672.29L1662.49 140H1634.09ZM1679.49 86.6H1718.69L1699.69 28.2H1698.49L1679.49 86.6Z" fill="black" fill-opacity="0.04"/>
</svg>
