<svg xmlns="http://www.w3.org/2000/svg" width="1920" height="1452" viewBox="0 0 1920 1452" fill="none"><script xmlns="" id="eppiocemhmnlbhjplcgkofciiegomcon"/><script xmlns=""/><script xmlns=""/>
<rect width="1920" height="1452" fill="url(#paint0_linear_102_8878)"/>
<rect x="1895" y="50" width="105" height="423" fill="#FF512F"/>
<path d="M841 331L897.6 193.4H925.6L972.2 331H943.2L933 300.6H889.2L879.4 331H841ZM896.4 277.6H925.6L906.6 219.2H905.4L896.4 277.6ZM991.51 331V193.4H1030.51L1064.51 284.2H1065.71L1099.51 193.4H1128.31V331H1100.91V235.2H1099.91L1064.31 331H1044.71L1009.11 235.2H1008.11V331H991.51ZM1171.39 331V193.4H1265.39V216.6H1199.79V250H1265.99V273.2H1199.79V307.8H1265.39V331H1171.39ZM1282.88 331V193.4H1348.68C1357.61 193.4 1364.74 194.4 1370.08 196.4C1375.54 198.4 1379.68 201.333 1382.48 205.2C1385.28 208.933 1387.14 213.533 1388.08 219C1389.14 224.333 1389.68 230.333 1389.68 237C1389.68 241.667 1389.28 246.667 1388.48 252C1387.68 257.333 1385.88 262.267 1383.08 266.8C1380.41 271.333 1376.14 274.667 1370.28 276.8L1392.28 331H1362.28L1341.48 275.8L1348.48 279.6C1347.54 280 1346.41 280.267 1345.08 280.4C1343.88 280.533 1342.48 280.6 1340.88 280.6H1311.28V331H1282.88ZM1311.28 257.6H1337.28C1342.88 257.6 1347.28 257.267 1350.48 256.6C1353.68 255.933 1356.08 254.867 1357.68 253.4C1359.28 251.8 1360.28 249.733 1360.68 247.2C1361.08 244.533 1361.28 241.133 1361.28 237C1361.28 232.867 1361.08 229.467 1360.68 226.8C1360.28 224.133 1359.34 222.067 1357.88 220.6C1356.41 219.133 1354.01 218.067 1350.68 217.4C1347.48 216.733 1343.08 216.4 1337.48 216.4H1311.28V257.6ZM1502.85 331V313C1502.85 305.267 1503.05 298.733 1503.45 293.4C1503.85 287.933 1504.78 283.333 1506.25 279.6C1507.85 275.867 1510.18 272.667 1513.25 270C1516.45 267.333 1520.85 264.867 1526.45 262.6L1558.05 249.8C1562.31 247.933 1565.51 246.333 1567.65 245C1569.78 243.533 1571.18 241.733 1571.85 239.6C1572.51 237.467 1572.85 234.6 1572.85 231C1572.85 226.2 1571.98 222.667 1570.25 220.4C1568.65 218 1565.78 216.533 1561.65 216C1557.65 215.333 1551.91 215 1544.45 215C1541.51 215 1537.85 215.133 1533.45 215.4C1529.05 215.667 1524.45 216 1519.65 216.4C1514.85 216.8 1510.18 217.267 1505.65 217.8V196C1509.78 195.2 1514.58 194.533 1520.05 194C1525.51 193.333 1531.11 192.8 1536.85 192.4C1542.71 192 1548.11 191.8 1553.05 191.8C1560.71 191.8 1566.91 192.2 1572.65 193C1578.51 193.8 1583.65 195.467 1588.05 198C1592.45 200.533 1595.91 204.267 1598.45 209.2C1600.98 214.133 1602.25 220.8 1602.25 229.2C1602.25 237.467 1601.31 244.133 1599.45 249.2C1597.71 254.267 1595.05 258.333 1591.45 261.4C1587.85 264.467 1583.38 267.067 1588.05 269.2L1552.05 283.6C1548.85 284.8 1546.45 286.133 1544.85 287.6C1543.38 288.933 1542.38 290.733 1541.85 293C1541.45 295.133 1541.25 298.067 1541.25 301.8V307.6H1612.25V331H1512.85ZM1698.91 331V302H1620.91V281.4L1671.51 193.4H1702.31L1651.51 278.8H1689.31L1696.91 241H1717.11V278.8H1735.51V302H1717.11V331H1698.91ZM1775.6 331L1828.2 216.8H1759V193.4H1877.6V214.6L1827 331H1775.6Z" fill="black" fill-opacity="0.04"/>
<g opacity="0.11">
<path opacity="0.5" d="M1920 1442.32L1920 1336.39L1889.26 1336.39C1894.6 1300.15 1897.47 1262.41 1897.47 1223.59C1897.47 1211.62 1897.13 1199.78 1896.6 1188.02C1896.54 1186.7 1896.5 1185.38 1896.43 1184.07C1891.35 1081.96 1866.74 988.604 1828.55 913.265C1831.18 910.388 1832.58 907.442 1832.45 904.51C1832.18 898.309 1825.22 893.202 1813.85 889.611C1785.72 841.882 1751.57 802.935 1713.38 775.072L1713.38 660.801L1702.5 660.801L1702.5 891.884C1675.46 898.884 1657.36 909.505 1657.8 919.858C1658.23 929.946 1676.21 937.171 1702.5 939.584L1702.5 1336.39L1683.34 1336.39L1683.34 1250.51L1633.94 1250.51L1633.94 1089.38C1635.41 1088.66 1636.44 1087.82 1636.44 1086.85C1636.44 1085.89 1635.4 1085.04 1633.94 1084.33L1633.94 1044.37C1635.41 1043.66 1636.44 1042.81 1636.44 1041.85C1636.44 1040.82 1635.31 1039.92 1633.67 1039.18L1624.45 984.381L1615.21 1039.25C1613.67 1039.98 1612.6 1040.85 1612.6 1041.85C1612.6 1042.76 1613.55 1043.56 1614.87 1044.25L1614.87 1084.44C1613.55 1085.14 1612.6 1085.93 1612.6 1086.84C1612.6 1087.75 1613.55 1088.55 1614.87 1089.24L1614.87 1250.5L1588.88 1250.5L1588.88 1151.77C1590.35 1151.05 1591.37 1150.21 1591.37 1149.24C1591.37 1148.28 1590.34 1147.43 1588.88 1146.72L1588.88 1106.76C1590.35 1106.05 1591.37 1105.2 1591.37 1104.24C1591.37 1103.21 1590.25 1102.31 1588.61 1101.57L1579.38 1046.77L1570.15 1101.65C1568.61 1102.38 1567.53 1103.25 1567.53 1104.24C1567.53 1105.15 1568.48 1105.95 1569.8 1106.64L1569.8 1146.83C1568.48 1147.53 1567.53 1148.32 1567.53 1149.23C1567.53 1150.14 1568.48 1150.94 1569.8 1151.63L1569.8 1227.39C1555.71 1214.31 1535.89 1205.99 1513.77 1205.42L1511.34 1155.3L1508.92 1205.42C1485.47 1206.02 1464.57 1215.32 1450.38 1229.77L1450.38 1151.75C1451.85 1151.04 1452.87 1150.2 1452.87 1149.23C1452.87 1148.26 1451.84 1147.42 1450.38 1146.7L1450.38 1106.75C1451.85 1106.03 1452.87 1105.19 1452.87 1104.22C1452.87 1103.2 1451.75 1102.3 1450.1 1101.56L1440.89 1046.76L1431.69 1101.67C1430.15 1102.4 1429.07 1103.27 1429.07 1104.25C1429.07 1105.16 1430.02 1105.96 1431.34 1106.65L1431.34 1146.84C1430.02 1147.55 1429.07 1148.35 1429.07 1149.24C1429.07 1150.14 1430.02 1150.96 1431.34 1151.64L1431.34 1205.32L1405.77 1205.32L1405.77 1089.35C1407.23 1088.64 1408.26 1087.79 1408.26 1086.83C1408.26 1085.86 1407.22 1085.02 1405.77 1084.3L1405.77 1044.34C1407.23 1043.63 1408.26 1042.79 1408.26 1041.82C1408.26 1040.79 1407.14 1039.9 1405.49 1039.15L1396.27 984.353L1387.04 1039.22C1385.49 1039.95 1384.42 1040.82 1384.42 1041.82C1384.42 1042.73 1385.37 1043.53 1386.69 1044.22L1386.69 1084.41C1385.37 1085.11 1384.42 1085.9 1384.42 1086.81C1384.42 1087.72 1385.37 1088.52 1386.69 1089.21L1386.69 1205.31L1341.79 1205.31L1341.79 1099.94L1327.37 1109.65L1326.48 1017.1L1325.58 1110.89C1298.21 1129.5 1278.65 1164.41 1271.19 1205.29L1217.75 1205.29L1217.75 1213.29L1189.19 1213.29L1189.19 1170.68L1165.58 1170.68L1165.58 932.078C1165.58 922.861 1160.38 915.397 1153.95 915.397L1138.04 915.397L1138.04 606.169C1138.04 596.952 1132.84 589.488 1126.42 589.488L1111.69 589.488L1111.69 277.819C1111.69 268.602 1106.49 261.138 1100.06 261.138L1096.55 261.138L1096.55 0.999914L1090.06 0.999914L1090.06 109.996L1068.42 123.03L1068.42 427.039L1050.54 434.713C1045.46 436.888 1042.06 442.794 1042.06 449.43L1042.06 759.191L1024.43 764.003C1018.65 765.574 1014.53 771.916 1014.53 779.225L1014.53 1028.29L1001.46 1031.02C995.376 1032.28 990.927 1038.77 990.927 1046.38L990.927 1213.35L943.723 1213.35L943.723 1336.39L923.099 1336.39L923.099 1161.55L923.226 1161.55L923.226 1055.62L882.74 1070.23L880.158 905.983L877.557 1072.11L850.078 1082.01L850.078 1153.02L833.982 1153.02C825.102 933.804 803.011 746.957 777.478 660.801C743.036 770.232 718.05 1042.01 716.857 1336.38L705.073 1336.38L705.074 977.955L653.01 977.955L650.262 803.048L647.514 977.955L637.695 977.955L634.948 803.048L632.2 977.955L600.369 977.955L600.369 989.053L607.703 989.053L607.703 997.148L600.369 997.148L600.369 1008.26L607.703 1008.26L607.703 1016.35L600.369 1016.35L600.369 1027.47L607.703 1027.47L607.703 1035.36L600.369 1035.36L600.369 1046.46L607.703 1046.46L607.703 1054.56L600.369 1054.56L600.369 1065.67L607.703 1065.67L607.703 1073.76L600.369 1073.76L600.369 1084.88L607.703 1084.88L607.703 1093.45L600.369 1093.45L600.369 1104.56L607.703 1104.56L607.703 1112.65L600.369 1112.65L600.369 1123.75L607.703 1123.75L607.703 1131.85L600.369 1131.85L600.369 1142.94L607.703 1142.94L607.703 1153.03L576.116 1153.03L576.116 1083.92C576.116 1013.48 547.737 949.391 503.291 919.466L483.43 906.095L483.43 1205.35L465.691 1205.35L459.139 851.548L422.096 427.838L457.946 787.082L457.134 743.295L468.928 402.767L465.133 401.505L462.904 342.903L460.723 400.031L418.81 386.1L417.01 338.764L415.201 386.324L376.877 393.045L375.85 366.01L374.804 393.41L332.392 400.845L330.514 351.657L328.617 401.505L321.508 402.753L329.849 808.856L352.468 1205.32L351.93 1205.32L332.196 923.183L333.301 976.987L326.612 1205.32L294.928 1205.32L294.928 890.312L176.523 822.366L173.794 648.707L171.115 819.266L139.567 801.168L139.567 894.788L131.284 894.788L131.284 914.345L139.567 914.345L139.567 928.164L131.284 928.164L131.284 947.721L139.567 947.721L139.567 961.541L131.284 961.541L131.284 981.098L139.567 981.098L139.567 994.917L131.284 994.917L131.284 1014.47L139.567 1014.47L139.567 1028.29L131.284 1028.29L131.284 1047.85L139.567 1047.85L139.567 1061.67L131.284 1061.67L131.284 1081.23L139.567 1081.23L139.567 1336.38L133.348 1336.38L133.348 1136.38L40.6518 1136.38L40.6517 1336.38L7.77863e-06 1336.38L0 1442.32L1920 1442.32ZM1794.75 885.57C1787.59 884.616 1779.68 884.055 1771.2 883.929C1761.77 859.615 1751.4 837.519 1740.12 818.214C1760.11 837.575 1778.39 860.19 1794.75 885.57ZM1714.93 805.264C1730.66 826.898 1744.84 853.554 1757.29 884.125C1752.92 884.293 1748.5 884.546 1743.97 884.953C1733.75 885.851 1724.01 887.282 1714.93 889.092L1714.93 805.264ZM777.507 859.994C790.885 859.994 801.769 875.609 801.769 894.801C801.769 913.994 790.885 929.609 777.507 929.609C764.129 929.609 753.245 913.994 753.245 894.801C753.245 875.609 764.129 859.994 777.507 859.994ZM759.465 894.801C759.465 880.519 767.562 868.903 777.517 868.903C787.472 868.903 795.56 880.519 795.56 894.801C795.56 909.084 787.462 920.7 777.517 920.7C767.552 920.7 759.465 909.083 759.465 894.801Z" fill="url(#paint1_linear_102_8878)"/>
</g>
<defs>
<linearGradient id="paint0_linear_102_8878" x1="960" y1="0" x2="960" y2="1452" gradientUnits="userSpaceOnUse">
<stop offset="0.0208333" stop-color="#F9F9F9"/>
<stop offset="1" stop-color="#F9F9F9"/>
</linearGradient>
<linearGradient id="paint1_linear_102_8878" x1="960.025" y1="1426.22" x2="960.025" y2="666.271" gradientUnits="userSpaceOnUse">
<stop/>
<stop offset="0.7283"/>
</linearGradient>
</defs>
</svg>